<svg width="663" height="420" viewBox="0 0 663 420" fill="none" xmlns="http://www.w3.org/2000/svg">
<path d="M363.803 372.991H165.381C157.246 372.991 150.586 366.531 150.347 358.415L140.484 22.3294C140.235 13.8664 147.042 6.87085 155.518 6.87085H372.539C381 6.87085 387.792 13.8323 387.572 22.2757L378.842 358.361C378.632 366.502 371.962 372.991 363.808 372.991H363.803Z" fill="#33353B"/>
<path d="M157.037 331.924L152.237 31.4992C152.115 23.7918 158.34 17.4788 166.06 17.4788H364.941C372.734 17.4788 378.989 23.9088 378.759 31.6844L369.956 332.109C369.736 339.573 363.613 345.506 356.138 345.506H170.86C163.311 345.506 157.159 339.461 157.037 331.924Z" fill="#BBBBBB"/>
<path d="M227.089 187.23L245.043 174.258C248.534 171.737 249.212 166.823 246.537 163.45L203.262 108.875C201.103 106.149 197.358 105.248 194.19 106.691L179.864 113.213C175.66 115.129 174.141 120.326 176.656 124.197L216.303 185.221C218.662 188.848 223.578 189.765 227.084 187.23H227.089Z" fill="#F7F7F7"/>
<path d="M166.455 197.004C166.455 197.004 212.05 204.639 211.801 200.992C211.552 197.346 172.842 136.316 168.848 136.545C164.859 136.774 166.455 197.004 166.455 197.004Z" fill="#F7F7F7"/>
<path d="M176.436 66.4868C176.436 66.4868 199.848 90.1547 192.934 94.4691C186.016 98.7834 164.996 102.503 163.668 96.9261C162.339 91.3491 158.082 53.3097 176.441 66.4868H176.436Z" fill="#F7F7F7"/>
<path d="M133.995 143.843C145.675 146.061 158.897 143.974 173.345 137.627C184.253 132.835 191.987 127.214 192.309 126.975L179.546 108.733L185.927 117.854L179.565 108.719C172.92 113.54 152.31 125.22 136.91 121.437C129.918 119.717 124.523 114.881 120.416 106.652L100.739 116.987C107.726 130.997 118.424 140.109 131.666 143.336C132.438 143.526 133.214 143.692 134 143.843H133.995Z" fill="#FFE3DB"/>
<path d="M162.109 129.393C162.109 129.393 169.365 118.6 176.743 115.276C184.121 111.951 188.798 114.71 188.798 114.71L196.713 111.556C196.713 111.556 197.846 141.537 177.275 136.253C175.649 135.833 162.109 129.393 162.109 129.393Z" fill="#FFE3DB"/>
<path d="M195.536 95.9267L187.978 139.382C187.485 142.224 184.736 144.101 181.899 143.531L161.641 139.436C158.916 138.885 157.124 136.267 157.603 133.537L165.054 90.7105C165.537 87.9269 168.183 86.0598 170.976 86.5327L191.342 89.9988C194.145 90.4765 196.025 93.1334 195.536 95.9267Z" fill="#33353B"/>
<path d="M192.368 94.5765C192.348 93.8306 191.723 93.2407 190.976 93.2602C190.229 93.2797 189.638 93.9037 189.658 94.6496C189.677 95.3955 190.302 95.9853 191.049 95.9658C191.796 95.9463 192.387 95.3224 192.368 94.5765Z" fill="#100B47"/>
<path d="M199.263 108.372C199.263 108.372 201.347 103.805 197.158 101.933C191.821 99.5488 182.881 101.689 186.24 103.244C189.219 104.624 193.926 105.574 193.926 105.574C193.926 105.574 181.934 103.327 182.32 105.974C182.705 108.621 193.042 110.41 193.042 110.41C193.042 110.41 181.162 109.323 182.334 111.707C183.506 114.091 192.886 115.773 192.886 115.773C192.886 115.773 181.328 114.086 182.759 116.821C184.19 119.556 190.342 119.219 192.979 119.668C195.474 120.097 196.558 118.629 196.797 116.197C196.797 116.197 198.447 113.915 198.198 112.287C198.105 111.663 198.769 111.171 198.896 110.747C199.14 109.932 199.267 108.372 199.267 108.372H199.263Z" fill="#FFE3DB"/>
<path d="M88.4299 391.023C88.4299 391.023 88.6203 398.638 93.7813 400.788C98.9423 402.938 113.898 404.873 108.307 409.772C105.099 412.58 89.9924 410.767 85.7249 410.767C81.4575 410.767 77.4537 412.624 74.2848 409.772C70.7986 406.638 74.2848 391.028 74.2848 391.028C74.2848 391.028 77.9663 392.944 81.2768 392.856C86.0472 392.734 88.4299 391.028 88.4299 391.028V391.023Z" fill="#33353B"/>
<path d="M29.1594 391.018C29.1594 391.018 29.3498 398.633 34.5108 400.783C39.6718 402.933 54.6275 404.868 49.0368 409.767C45.8289 412.575 30.7219 410.762 26.4544 410.762C22.1869 410.762 18.1831 412.619 15.0143 409.767C11.528 406.633 15.0143 391.023 15.0143 391.023C15.0143 391.023 18.6958 392.939 22.0063 392.851C26.7767 392.729 29.1594 391.023 29.1594 391.023V391.018Z" fill="#33353B"/>
<path d="M126.789 182.258C126.789 182.258 127.741 214.135 117.551 275.282C110.193 319.429 101.511 363.914 97.2486 385.237C95.7252 392.866 89.2996 398.443 81.6826 398.75L77.5909 398.916C69.3538 399.247 62.6743 392.183 63.2749 383.789L73.6115 239.504L76.1603 192.017L126.789 182.262V182.258Z" fill="#ADADAD"/>
<path d="M33.5779 210.313C34.0467 214.194 56.0187 213.721 82.9223 210.323C109.826 206.925 130.763 201.104 130.294 197.224C129.825 193.343 108.122 192.87 81.2183 196.273C54.3147 199.671 33.1043 206.433 33.5731 210.313H33.5779Z" fill="#33353B"/>
<path d="M95.9057 205.028L38.4707 389.234C36.0684 396.946 29.1155 402.226 21.1958 402.362L17.7437 402.421C9.59453 402.562 3.36423 395.035 4.84856 386.845L36.2686 213.759C36.7227 211.702 38.2461 210.064 40.2334 209.494C51.0046 206.393 96.9653 197.404 95.9106 205.024L95.9057 205.028Z" fill="#ADADAD"/>
<path d="M29.9161 197.302L42.9382 182.199C42.7038 182.053 17.143 165.941 19.5941 142.999C20.8685 131.041 28.0509 121.418 40.9363 114.403C51.1899 108.821 61.258 107.071 61.3557 107.051L58.2942 87.459C57.762 87.5467 45.0573 89.6771 31.8008 96.8921C13.1636 107.037 2.26544 122.237 0.283068 140.85C-1.31845 155.884 3.94508 170.831 15.5073 184.076C23.8029 193.582 23.4368 194.153 29.9161 197.302Z" fill="#FFE3DB"/>
<path d="M42.557 104.258C42.557 104.258 50.1984 82.7936 77.4194 83.7686C104.64 84.7436 125.196 120.462 130.289 197.224C130.289 197.224 85.7102 187.464 33.4948 210.23C33.4948 210.23 30.5993 135.546 42.557 104.258Z" fill="#294A54"/>
<path d="M21.1807 99.7194L42.7279 115.29C42.7279 115.29 92.3018 120.243 105.461 117.859C118.619 115.475 122.233 104.848 122.233 104.848C122.233 104.848 108.214 88.9019 84.3919 84.6412C82.1556 84.2365 79.8315 83.944 77.4243 83.7685C73.3814 83.4809 69.3434 83.6077 65.3836 84.0318C41.8491 86.5668 21.1807 99.7194 21.1807 99.7194Z" fill="#294A54"/>
<path d="M21.181 99.7194C20.014 101.406 23.8909 106.257 29.838 110.556C35.7851 114.856 41.5564 116.977 42.7234 115.29C43.8903 113.603 40.0135 108.753 34.0664 104.453C28.1193 100.153 22.3479 98.0327 21.181 99.7194Z" fill="#33353B"/>
<path d="M6.57901 147.052C4.6064 147.052 3 144.8 3 142.026C3 139.257 4.6064 137 6.57901 137C8.55161 137 10.158 139.252 10.158 142.026C10.158 143.337 9.80646 144.576 9.16683 145.512C8.48814 146.506 7.57019 147.052 6.57901 147.052ZM3.94724 142.026C3.94724 144.239 5.15326 146.106 6.57901 146.106C7.24793 146.106 7.88757 145.707 8.3856 144.98C8.91781 144.195 9.21077 143.147 9.21077 142.026C9.21077 139.813 8.00475 137.946 6.57901 137.946C5.15326 137.946 3.94724 139.813 3.94724 142.026Z" fill="#FFD2D2"/>
<path d="M65.4277 84.0269C68.3378 83.7149 70.867 81.8916 72.0242 79.2055L75.6521 70.7913L76.7067 68.349L82.898 53.9922L81.8238 68.8706L81.1793 77.8015L80.9937 80.3463C80.8424 82.423 82.2974 84.2609 84.353 84.6314H84.3872C85.4907 86.4253 87.0092 90.0621 82.4634 91.5051C77.1218 93.2015 68.4794 89.0042 65.3789 84.0269C65.3936 84.0269 65.4082 84.0269 65.4277 84.022V84.0269Z" fill="#FFE3DB"/>
<path d="M32.4355 175.535C32.4355 175.535 40.5017 168.164 46.8687 168.812C53.2357 169.461 60.8771 175.101 56.844 175.535C52.8109 175.969 47.5034 175.101 47.5034 175.101C47.5034 175.101 58.7531 177.485 57.054 179.874C55.3548 182.258 45.5894 180.088 45.5894 180.088C45.5894 180.088 58.7483 183.993 56.4143 185.729C54.0804 187.464 44.1002 184.427 44.1002 184.427C44.1002 184.427 56.1995 188.546 53.4408 190.501C50.6821 192.451 43.4655 187.03 41.7663 189.419C40.0671 191.803 36.8836 201.129 29.667 197.224L32.4257 175.54L32.4355 175.535Z" fill="#FFE3DB"/>
<path d="M70.2324 287.362L82.5856 249.873C85.3638 241.444 91.0766 234.405 98.674 230.061L98.1955 229.223C90.393 233.688 84.524 240.913 81.6725 249.571L69.3193 287.06L70.2373 287.362H70.2324Z" fill="#33353B"/>
<path d="M38.7534 115.578C38.7534 115.578 39.9497 111.999 34.5348 108.017C29.1199 104.034 22.1035 103.137 22.1035 103.137L20.6826 109.967L28.324 113.301L38.7534 115.578Z" fill="#FFE3DB"/>
<path d="M66.0572 51.54C66.0572 51.54 66.6334 53.9824 65.2272 58.989C63.1716 66.3112 71.5502 69.3678 73.6986 67.2765C73.9623 67.0181 73.6107 54.5625 73.6107 54.5625L70.9301 52.9733L66.0572 51.54Z" fill="#33353B"/>
<path d="M75.6427 70.5478C75.6427 70.6307 75.6525 70.7135 75.6574 70.7964C76.0138 75.5934 81.1504 77.8358 81.1504 77.8358L81.1797 77.8115L81.8242 68.8805C80.252 68.3053 78.0157 67.7154 76.7072 68.3589C76.0236 68.6953 75.5939 69.368 75.6378 70.5526L75.6427 70.5478Z" fill="#33353B"/>
<path d="M97.5803 56.3712C97.5803 46.8455 91.3109 39.1235 83.5768 39.1235C75.8426 39.1235 69.5732 46.8455 69.5732 56.3712C69.5732 65.8969 75.8426 73.6188 83.5768 73.6188C91.3109 73.6188 97.5803 65.8969 97.5803 56.3712Z" fill="#FFE3DB"/>
<path d="M89.1233 43.1308C88.7327 43.6622 90.9397 52.5347 74.4753 54.6504C58.0109 56.771 67.9032 36.8275 80.0513 36.3741C97.5899 35.7258 100.144 47.4988 98.459 51.7352C96.7745 55.9715 89.1233 43.126 89.1233 43.126V43.1308Z" fill="#33353B"/>
<path d="M63.7481 32.2255C63.7481 32.2255 71.1453 37.1639 65.4521 41.8146C59.7638 46.4653 44.1197 48.4981 48.3823 56.342C52.6497 64.1858 56.3459 75.8126 48.6655 77.2653C40.985 78.7181 36.1511 78.138 33.0213 84.2365C29.8915 90.34 15.9564 86.5619 17.094 79.2982C18.2317 72.0345 6.28377 65.6385 11.4057 58.9598C16.5276 52.2762 29.042 46.4653 32.1718 37.7489C35.3016 29.0324 57.7717 28.4523 63.7481 32.2304V32.2255Z" fill="#33353B"/>
<path d="M76.2873 51.8279C76.2873 51.8279 69.5589 58.9112 71.8929 66.1505C71.8929 66.1505 67.9916 61.8947 67.9037 60.3054C67.8158 58.7162 68.8558 52.9784 68.8558 52.9784L76.2873 51.8327V51.8279Z" fill="#33353B"/>
<path d="M71.4477 58.9744C73.0346 60.4856 75.2514 60.6416 76.4037 59.3205C77.5511 57.9994 77.1995 55.7033 75.6127 54.192C74.0258 52.6808 71.8091 52.5248 70.6568 53.8459C69.5093 55.167 69.8609 57.4631 71.4477 58.9744Z" fill="#FFE3DB"/>
<path d="M20.5123 86.6009C20.5514 86.6009 20.5953 86.596 20.6344 86.5765C22.6167 85.8112 23.7984 84.8459 24.2378 83.6272C24.9067 81.7698 23.7642 79.7321 22.5533 77.5773C21.4937 75.6907 20.3951 73.7359 20.6588 71.9857C20.9713 69.9188 23.6909 69.4361 26.5717 68.9243C28.9984 68.4953 31.513 68.0468 32.5091 66.4965C32.9827 65.7604 33.0755 64.8244 32.7874 63.7178C32.47 62.4942 32.0794 61.3973 31.7034 60.3395C30.0872 55.7862 28.808 52.1885 35.9562 43.9547C45.1259 33.3906 52.7185 32.8836 59.564 33.9074C60.3648 34.0244 62.3911 35.0676 62.3813 35.9987C62.3764 36.4765 61.7222 37.6709 55.7897 38.4118C55.6774 38.4362 47.3573 40.3716 43.3535 49.3318C41.2198 54.1044 44.2519 59.2133 46.6884 63.3181C48.3241 66.0724 49.7352 68.4514 49.2957 70.0455C49.1346 70.6256 48.7293 71.0839 48.0555 71.4495C46.3954 72.3514 44.5351 72.8535 42.7334 73.341C38.0997 74.5939 33.3147 75.8857 32.7092 84.2122C32.6946 84.3974 32.8362 84.5534 33.0169 84.568C33.2024 84.5875 33.3586 84.4413 33.3733 84.2609C33.9397 76.4025 38.295 75.2276 42.9043 73.9845C44.7402 73.4872 46.6395 72.9754 48.3729 72.0345C49.203 71.5811 49.7303 70.9718 49.9402 70.221C50.4578 68.3539 48.9784 65.8628 47.2645 62.9768C44.7841 58.799 41.9717 54.0605 43.9687 49.5999C47.8358 40.942 55.8288 39.0797 55.9118 39.0651C60.6919 38.4655 63.0405 37.4612 63.06 36.0036C63.0795 34.5314 60.5552 33.3809 59.6763 33.2493C52.6452 32.2011 44.8476 32.713 35.468 43.5208C28.0658 52.052 29.3988 55.8057 31.0882 60.5637C31.4593 61.6118 31.845 62.6892 32.1526 63.8836C32.3968 64.8195 32.3284 65.5557 31.9573 66.1358C31.1175 67.4374 28.7543 67.8615 26.4643 68.2662C23.4761 68.7975 20.3902 69.3435 20.0094 71.8883C19.7115 73.8675 20.8687 75.9199 21.982 77.9088C23.1197 79.9271 24.189 81.8381 23.6226 83.4078C23.2515 84.4364 22.2017 85.27 20.4049 85.9623C20.234 86.0305 20.1461 86.2207 20.2145 86.3913C20.2633 86.5229 20.3902 86.6058 20.527 86.6058L20.5123 86.6009Z" fill="white"/>
<path d="M74.3439 49.4245H74.3487C80.6816 49.288 83.8309 44.3156 83.9579 44.1011C84.0555 43.9451 84.0067 43.7403 83.8504 43.6428C83.6942 43.5453 83.4891 43.5941 83.3915 43.7501C83.3622 43.7988 80.2958 48.6299 74.3341 48.7567C74.1486 48.7567 74.0021 48.9127 74.007 49.0979C74.007 49.2783 74.1583 49.4245 74.339 49.4245H74.3439Z" fill="white"/>
<path d="M47.4257 175.325L47.5917 174.882C47.4598 174.833 44.3593 173.692 42.6406 174.911L42.9141 175.296C44.4277 174.224 47.3964 175.316 47.4257 175.325Z" fill="#C7C7C7"/>
<path d="M45.5116 180.308L45.6873 179.869C45.5604 179.82 42.5722 178.665 39.8525 179.869L40.043 180.298C42.582 179.167 45.4823 180.288 45.5116 180.298V180.308Z" fill="#C7C7C7"/>
<path d="M44.0272 184.646L44.1932 184.203C44.037 184.144 40.3701 182.794 38.6514 184.242L38.9541 184.602C40.4677 183.33 43.9881 184.632 44.0272 184.641V184.646Z" fill="#C7C7C7"/>
<path d="M126.305 200.7C126.305 200.7 113.801 198.964 95.0269 200.349C65.9456 202.494 41.249 209.216 41.249 209.216L50.4773 210.766L108.278 213.053L119.914 203.527L126.305 200.705V200.7Z" fill="#ADADAD"/>
<path d="M91.3114 67.5348C91.3114 67.5348 86.5263 67.647 81.7462 65.9651C81.7462 65.9651 81.3507 70.6743 86.5312 70.9863C89.5438 71.1715 91.3163 67.5299 91.3163 67.5299L91.3114 67.5348Z" fill="#6D6867"/>
<path d="M91.3113 67.5348C91.3113 67.5348 90.1541 68.4952 87.454 68.4806C84.7538 68.4708 81.7461 65.9651 81.7461 65.9651C81.7461 65.9651 87.5077 67.5446 91.3113 67.5348Z" fill="white"/>
<path d="M84.9342 56.5371C85.027 56.5127 85.11 56.4445 85.1442 56.347C85.2077 56.1861 85.1296 56.0009 84.9684 55.9326C84.8708 55.8936 82.7273 54.7919 80.8474 56.8491C80.7303 56.9807 80.7303 57.1757 80.8572 57.2976C80.9842 57.4195 81.1599 57.3853 81.3064 57.2878C82.7712 56.308 84.6511 56.4883 84.7292 56.5225C84.7975 56.5468 84.8659 56.5517 84.9294 56.5322L84.9342 56.5371Z" fill="#080435"/>
<path d="M82.4102 60.0323C82.3858 60.7928 82.8154 61.4217 83.3623 61.4363C83.914 61.4558 84.3779 60.8513 84.4023 60.0957C84.4267 59.3352 83.997 58.7063 83.4502 58.6917C82.9033 58.677 82.4346 59.2767 82.4102 60.0323Z" fill="#080435"/>
<path d="M96.3008 58.1944C96.3985 58.2041 96.4961 58.1749 96.5694 58.1017C96.6914 57.975 96.6914 57.7751 96.5645 57.6532C96.4912 57.5801 94.9288 55.7471 92.3995 56.9318C92.2384 57.0049 92.1652 57.1901 92.2384 57.351C92.3117 57.5119 92.4874 57.546 92.6583 57.5119C94.3868 57.1609 96.0567 58.0481 96.1153 58.1066C96.169 58.1554 96.2325 58.1846 96.2959 58.1944H96.3008Z" fill="#080435"/>
<path d="M92.6386 60.4661C92.3261 61.1584 92.4824 61.9042 92.9853 62.1285C93.4882 62.3527 94.1474 61.9774 94.4599 61.2851C94.7724 60.5929 94.6161 59.847 94.1132 59.6227C93.6103 59.3985 92.9511 59.7739 92.6386 60.4661Z" fill="#080435"/>
<path d="M107.68 103.43L107.09 103.745L113.51 115.725L114.1 115.41L107.68 103.43Z" fill="#33353B"/>
<path d="M210.61 324.1C209.594 324.1 208.652 323.446 208.33 322.427C207.929 321.17 208.633 319.824 209.892 319.429C223.232 315.222 235.409 307.968 246.088 297.872C256.146 288.366 264.49 276.515 270.232 263.611C281.546 238.164 282.141 210.698 271.858 188.263C255.472 152.506 177.335 58.4576 176.548 57.5119C175.704 56.4979 175.84 54.9866 176.861 54.1433C177.877 53.2999 179.39 53.4364 180.235 54.4553C180.43 54.6941 200.249 78.5181 221.85 106.491C250.921 144.145 269.217 170.986 276.219 186.274C287.073 209.957 286.487 238.851 274.612 265.551C268.621 279.03 259.896 291.408 249.383 301.348C238.178 311.946 225.375 319.561 211.342 323.992C211.103 324.07 210.859 324.104 210.62 324.104L210.61 324.1Z" fill="#DADADA"/>
<path d="M276.95 34.5145L203.668 86.9932L206.226 90.5544L279.508 38.0758L276.95 34.5145Z" fill="#DADADA"/>
<path d="M345.552 71.8724L244.167 140.175L246.622 143.808L348.007 75.5053L345.552 71.8724Z" fill="#DADADA"/>
<path d="M260.561 48.7438L257.228 51.5947L302.203 104.023L305.537 101.172L260.561 48.7438Z" fill="#DADADA"/>
<path d="M361.903 119.081L271.269 180.741L273.74 184.363L364.375 122.703L361.903 119.081Z" fill="#DADADA"/>
<path d="M305.271 239.928C292.888 239.928 279.817 238.164 268.494 232.86C232.177 215.856 163.971 208.807 163.287 208.738L163.727 204.375C166.554 204.663 233.368 211.566 270.359 228.887C306.193 245.666 361.817 225.45 362.374 225.245L363.897 229.355C363.311 229.569 349.322 234.698 330.539 237.759C323.136 238.968 314.387 239.924 305.271 239.924V239.928Z" fill="#DADADA"/>
<path d="M229.052 204.707C229.052 204.707 261.175 222.081 265.501 217.684C269.827 213.282 259.793 180.386 255.628 181.492C251.468 182.599 228.583 201.314 229.052 204.707Z" fill="#F7F7F7"/>
<path d="M343.262 146.339C343.262 146.339 286.989 179.376 288.586 184.373C290.183 189.37 293.742 216.762 293.562 224.187C293.376 231.612 361.065 218.82 363.14 214.856C365.215 210.893 363.14 135.58 363.14 135.58L343.267 146.339H343.262Z" fill="#F7F7F7"/>
<path d="M255.257 60.866C255.257 60.866 216.342 85.7722 218.739 89.755C221.132 93.7379 240.687 130.003 248.172 128.209C255.657 126.415 290.91 104.897 288.552 99.7195C286.189 94.5374 257.854 57.6826 255.262 60.866H255.257Z" fill="#F7F7F7"/>
<path d="M284.46 128.272C284.46 128.272 256.741 144.618 258.895 147.338C261.048 150.058 269.031 161.744 272.752 161.212C276.477 160.681 305.187 143.414 303.869 140.494C302.551 137.573 287.434 126.483 284.46 128.272Z" fill="#F7F7F7"/>
<path d="M326.305 102.591C326.305 102.591 290.578 121.657 292.444 124.83C294.304 128.004 305.217 136.506 309.338 135.575C313.459 134.644 336.075 121.92 335.543 119.117C335.011 116.314 326.3 102.586 326.3 102.586L326.305 102.591Z" fill="#F7F7F7"/>
<path d="M298.825 30.0122C298.825 30.0122 276.477 47.4987 278.338 50.1653C280.198 52.8319 300.954 85.2407 306.54 85.2407C312.126 85.2407 350.44 61.6263 350.44 57.6289C350.44 53.6314 328.766 26.7996 326.3 26.7996C323.834 26.7996 298.825 30.0122 298.825 30.0122Z" fill="#F7F7F7"/>
<path d="M191.602 50.1654C191.602 50.1654 207.265 72.3367 211.806 71.4836C216.347 70.6305 262.845 34.9653 262.244 31.9769C261.644 28.9885 183.618 29.3883 184.419 34.3656C185.215 39.3478 191.602 50.1654 191.602 50.1654Z" fill="#F7F7F7"/>
<path d="M171.88 219.385C171.88 219.385 201.176 223.797 215.546 227.307C229.916 230.817 268.083 243.17 266.56 246.758C265.037 250.346 235.174 304.083 204.008 301.124C172.842 298.165 163.745 293.407 163.506 280.303C163.267 267.199 157.749 215.134 171.885 219.39L171.88 219.385Z" fill="#F7F7F7"/>
<path d="M350.044 241.684C350.044 241.684 309.733 250.809 299.757 250.575C289.782 250.341 288.996 265.883 283.2 275.443C277.409 285.007 267.429 304.239 284.592 306.179C301.754 308.12 347.866 281.863 347.866 281.863C347.866 281.863 363.335 281.249 364.057 271.065C364.775 260.881 358.642 239.802 350.044 241.684Z" fill="#F7F7F7"/>
<path d="M154.019 410.552H151.953C150.743 410.552 149.732 409.631 149.62 408.427L149.175 403.601C149.048 402.231 150.127 401.046 151.509 401.046H154.019C155.313 401.046 156.363 402.094 156.363 403.386V408.212C156.363 409.504 155.313 410.552 154.019 410.552Z" fill="#33353B"/>
<path d="M208.334 410.552H206.269C205.058 410.552 204.047 409.631 203.935 408.427L203.491 403.601C203.364 402.231 204.443 401.046 205.825 401.046H208.334C209.628 401.046 210.678 402.094 210.678 403.386V408.212C210.678 409.504 209.628 410.552 208.334 410.552Z" fill="#33353B"/>
<path d="M197.085 299.608H158.033L160.67 276.369C161.27 271.084 165.743 267.189 171.055 267.35L190.444 267.862C194.165 267.959 197.085 270.948 197.085 274.667V299.603V299.608ZM162.901 295.269H192.739V274.672C192.739 273.327 191.685 272.24 190.332 272.206L170.943 271.694C170.889 271.694 170.836 271.694 170.782 271.694C167.803 271.694 165.328 273.887 164.991 276.861L162.901 295.269Z" fill="#44474F"/>
<path d="M209.081 403.391L151.47 405.238C142.711 405.521 135.309 398.803 134.752 390.072L129.64 309.86C129.044 300.524 136.471 292.627 145.836 292.627H211.649C220.863 292.627 228.231 300.276 227.865 309.47L224.774 387.84C224.437 396.332 217.587 403.128 209.076 403.396L209.081 403.391Z" fill="#294A54"/>
<path d="M157.422 393.295C156.919 393.295 156.504 392.895 156.49 392.388L154.366 304.341C154.351 303.829 154.761 303.4 155.274 303.391C155.786 303.361 156.216 303.785 156.226 304.297L158.35 392.344C158.365 392.856 157.954 393.285 157.442 393.295C157.432 393.295 157.427 393.295 157.417 393.295H157.422Z" fill="#33353B"/>
<path d="M179.81 393.295C179.307 393.295 178.892 392.895 178.877 392.388L176.753 304.341C176.739 303.829 177.149 303.4 177.661 303.391C178.174 303.361 178.604 303.785 178.614 304.297L180.738 392.344C180.752 392.856 180.342 393.285 179.829 393.295C179.82 393.295 179.815 393.295 179.805 393.295H179.81Z" fill="#33353B"/>
<path d="M203.481 393.295C202.978 393.295 202.563 392.895 202.548 392.388L200.424 304.341C200.41 303.829 200.82 303.4 201.332 303.391C201.845 303.361 202.275 303.785 202.285 304.297L204.408 392.344C204.423 392.856 204.013 393.285 203.5 393.295C203.491 393.295 203.486 393.295 203.476 393.295H203.481Z" fill="#33353B"/>
<path d="M311.857 22.9241C292.155 24.099 282.507 38.9237 281.159 58.5942C279.812 78.0649 300.861 106.447 311.256 119.18C314.157 122.763 319.615 122.763 322.54 119.239C332.618 107.051 352.608 80.5024 352.608 61.5192C352.608 42.5361 336.324 21.4665 311.857 22.929V22.9241ZM314.357 81.3311C302.985 80.8729 294.514 72.7853 294.514 61.4315C294.514 50.0777 299.308 41.9365 315.651 39.1529C329.635 36.7739 336.329 49.4732 337.217 60.7977C338.282 74.5305 329.952 81.9843 314.357 81.3262V81.3311Z" fill="#33353B"/>
<path d="M313.19 124.28C310.958 124.28 308.859 123.314 307.413 121.613C297.609 110.181 274.895 81.4385 275.788 61.5632C276.242 51.3453 278.982 42.6532 283.718 36.4279C288.937 29.559 296.398 25.6737 305.895 24.8742C316.593 23.9772 326.788 27.3361 334.605 34.3414C342.671 41.571 347.642 52.1984 347.901 62.7673C348.101 71.0889 344.561 81.7943 337.374 94.5911C331.407 105.209 324.185 115.022 319.176 121.389C317.755 123.183 315.626 124.236 313.331 124.28C313.287 124.28 313.238 124.28 313.195 124.28H313.19ZM305.944 25.4787C296.628 26.2587 289.313 30.066 284.201 36.7935C279.543 42.9213 276.843 51.4964 276.399 61.5876C275.515 81.2483 298.122 109.835 307.882 121.218C309.24 122.817 311.227 123.709 313.321 123.67C315.431 123.631 317.394 122.666 318.697 121.013C327.452 109.894 347.759 81.965 347.295 62.782C347.041 52.3739 342.149 41.9122 334.205 34.7899C326.514 27.9016 316.481 24.5915 305.954 25.4787H305.944ZM310.641 83.8126C310.372 83.8126 310.099 83.8126 309.825 83.8028C304.196 83.7102 299.04 81.7212 295.299 78.2015C291.506 74.6281 289.343 69.6167 289.211 64.0933C288.893 50.9992 295.319 43.8817 310.045 41.0055C315.074 40.0256 319.513 40.9275 323.243 43.6867C328.204 47.3576 331.661 54.3483 332.491 62.392C333.145 68.8318 331.754 73.97 328.35 77.6604C324.64 81.6871 318.526 83.8077 310.641 83.8077V83.8126ZM313.849 41.2346C312.657 41.2346 311.427 41.3565 310.157 41.6051C291.73 45.2028 289.606 55.5085 289.811 64.0836C289.943 69.446 292.038 74.3064 295.71 77.7627C299.337 81.1801 304.352 83.1106 309.83 83.1983C317.936 83.3446 324.176 81.2873 327.896 77.2557C331.177 73.697 332.515 68.7197 331.881 62.4602C331.07 54.5823 327.701 47.7476 322.877 44.1791C320.23 42.2193 317.203 41.2346 313.849 41.2346Z" fill="#33353B"/>
<path d="M609.93 0.932987C586.449 2.3321 574.946 20.0039 573.339 43.4476C571.733 66.6524 596.82 100.49 609.212 115.661C612.669 119.931 619.173 119.931 622.664 115.729C634.68 101.201 658.503 69.5579 658.503 46.9332C658.503 24.3085 639.094 -0.812252 609.93 0.932987ZM612.909 70.5524C599.354 70.0064 589.257 60.3686 589.257 46.8357C589.257 33.3028 594.974 23.5967 614.451 20.2817C631.121 17.4445 639.099 32.5862 640.159 46.085C641.423 62.4551 631.497 71.3422 612.913 70.5573L612.909 70.5524Z" fill="#ADADAD"/>
<path d="M609.564 119.278C609.564 119.278 609.524 119.278 609.505 119.278C606.776 119.258 604.222 118.035 602.508 115.919C596.087 108.056 586.844 95.9218 579.286 82.7691C570.126 66.8377 565.844 53.6022 566.547 43.4233C567.382 31.2553 570.902 20.9692 576.728 13.6762C583.153 5.63251 592.167 1.21091 603.514 0.533292C616.297 -0.232078 628.357 4.07252 637.478 12.6476C646.892 21.5005 652.512 34.3168 652.512 46.9332C652.512 69.2167 629.998 99.7633 616.58 115.982C614.842 118.074 612.288 119.273 609.564 119.273V119.278ZM603.563 1.33279C592.45 1.99578 583.632 6.31501 577.352 14.1735C571.63 21.3348 568.168 31.4698 567.343 43.4769C565.722 66.867 591.83 101.577 603.128 115.412C604.691 117.347 607.02 118.464 609.51 118.478C609.529 118.478 609.544 118.478 609.564 118.478C612.049 118.478 614.378 117.386 615.965 115.48C622.097 108.065 630.964 96.6092 638.352 84.1683C647.214 69.246 651.711 56.7173 651.711 46.9332C651.711 34.5313 646.184 21.9344 636.931 13.2277C627.971 4.80377 616.121 0.577169 603.563 1.32791V1.33279ZM608.704 70.9961C607.982 70.9961 607.249 70.9815 606.502 70.9473C599.788 70.6743 593.69 68.154 589.33 63.8445C584.906 59.4717 582.47 53.4316 582.47 46.8309C582.47 31.1969 590.34 22.8899 607.996 19.8821C614.026 18.8534 619.3 20.0624 623.674 23.4603C629.49 27.9842 633.411 36.4277 634.167 46.046C634.763 53.7484 632.952 59.8422 628.782 64.1516C624.436 68.6464 617.522 70.9912 608.709 70.9912L608.704 70.9961ZM612.029 20.3305C610.77 20.3305 609.466 20.4427 608.128 20.6718C598.9 22.2415 592.464 25.2884 588.465 29.983C584.969 34.0877 583.27 39.5964 583.27 46.8357C583.27 53.2171 585.624 59.0622 589.896 63.2839C594.115 67.452 600.028 69.8943 606.541 70.1576C616.175 70.5622 623.67 68.3002 628.21 63.6056C632.214 59.4668 633.953 53.5827 633.376 46.1143C632.639 36.7153 628.831 28.4864 623.191 24.0989C619.969 21.5932 616.233 20.3354 612.039 20.3354L612.029 20.3305Z" fill="#33353B"/>
<path d="M275.861 176.798C275.329 176.798 274.797 176.754 274.265 176.671C271.623 176.247 269.304 174.818 267.737 172.644C244.964 141.059 245.34 138.953 245.564 137.695C245.657 137.174 245.94 136.73 246.36 136.447L284.655 110.649C285.388 110.157 286.379 110.347 286.872 111.078C287.365 111.809 287.175 112.799 286.442 113.291L248.875 138.602C249.612 140.547 253.411 147.323 270.325 170.787C271.389 172.269 272.971 173.239 274.768 173.526C276.55 173.814 278.332 173.385 279.792 172.332C291.379 163.928 322.193 141.946 357.983 119.473C394.159 96.7603 415.618 96.9163 434.544 97.0528C436.682 97.0674 438.889 97.0869 441.043 97.0674C449.167 96.9991 459.382 97.1844 469.255 97.3648C482.873 97.6134 498.253 97.8913 501.134 97.2185C501.837 95.8682 501.954 89.7842 502.047 85.2992C502.296 72.8193 502.604 57.2828 510.303 54.8697C515.66 53.1927 526.46 52.6077 537.183 53.4169C546.04 54.0848 556.967 55.8349 558.725 60.3833C559.687 62.8695 558.857 70.0162 557.177 83.4857C555.122 99.9973 552.011 124.947 556.22 130.056C556.665 130.597 557.055 130.69 557.343 130.71C558.632 130.797 560.18 130.919 561.933 131.061C575.482 132.123 603.675 134.341 616.077 129.491C616.897 129.169 617.825 129.574 618.147 130.393C618.47 131.212 618.064 132.138 617.244 132.46C604.158 137.578 576.532 135.404 561.684 134.239C559.941 134.103 558.403 133.981 557.124 133.893C555.82 133.8 554.658 133.176 553.759 132.084C549.052 126.371 550.991 107.358 554.013 83.0957C555.166 73.8577 556.469 63.3862 555.751 61.5337C555.078 59.7885 548.906 57.5021 536.948 56.6003C526.753 55.83 516.192 56.3712 511.265 57.9165C505.758 59.6423 505.45 75.1203 505.245 85.3675C505.05 95.2685 504.869 99.3196 502.413 100.173C499.83 101.065 488.112 100.899 469.206 100.558C459.353 100.378 449.158 100.192 441.077 100.26C438.899 100.28 436.678 100.26 434.529 100.246C415.135 100.104 395.077 99.9583 359.692 122.178C323.98 144.598 293.239 166.531 281.677 174.916C279.963 176.159 277.946 176.807 275.871 176.807L275.861 176.798Z" fill="#294A54"/>
<path d="M645.902 394.991C645.902 394.991 619.125 395.825 615.824 389.848C603.686 367.857 616.303 316.865 630.633 304.102C644.964 291.345 655.564 313.604 655.564 313.604L645.902 394.986V394.991Z" fill="#3A3E49"/>
<path d="M658.958 321.252C658.958 321.252 654.061 303.298 643.182 308.909C632.298 314.52 632.845 394.665 645.902 394.991C658.958 395.318 664.402 346.505 658.958 321.252Z" fill="#BE686A"/>
<path d="M655.3 328.029C655.3 328.029 652.327 314.111 645.711 318.459C639.1 322.807 639.427 384.944 647.366 385.197C655.3 385.451 658.611 347.606 655.3 328.033V328.029Z" fill="#DADADA"/>
<path d="M542.203 419.649C542.203 419.649 506.389 422.038 502.692 414.326C490.954 389.843 479.329 323.237 520.626 301.621C556.368 282.916 566.065 330.262 566.065 330.262L542.203 419.649Z" fill="#3A3E49"/>
<path d="M559.527 328.711C559.527 328.711 553.028 306.569 538.595 313.487C524.156 320.404 524.879 419.244 542.203 419.644C559.527 420.049 566.743 359.848 559.527 328.706V328.711Z" fill="#BE686A"/>
<path d="M554.678 337.072C554.678 337.072 550.728 319.907 541.954 325.269C533.18 330.632 533.619 407.257 544.146 407.574C554.673 407.886 559.063 361.213 554.673 337.072H554.678Z" fill="#DADADA"/>
<path d="M323.927 333.23C323.927 333.23 322.472 328.97 319.421 325.104C319.421 325.104 305.354 301.441 286.345 315.003C267.337 328.565 274.061 401.002 278.157 407.471C282.254 413.945 306.604 411.6 306.604 411.6C323.927 411.946 331.144 360.062 323.927 333.226V333.23Z" fill="#3A3E49"/>
<path d="M313.02 228.462C313.02 228.462 253.968 252.886 259.027 308.899C259.027 308.899 253.544 309.743 251.434 320.692C249.325 331.641 260.291 383.018 268.304 384.281C276.316 385.544 507.043 392.281 512.951 388.912C518.854 385.544 524.762 377.544 524.337 358.171C523.917 338.798 529.244 298.447 546.27 300.159C560.825 301.621 564.317 349.62 560.825 379.864C559.097 394.86 580.434 373.751 598.993 372.069C617.552 370.382 629.72 373.181 630.57 362.651C631.414 352.121 628.704 307.169 644.764 306.467C659.934 305.804 661.047 336.838 661.047 336.838C662.737 334.732 664.797 310.791 660.159 300.159C655.52 289.526 662.268 246.149 651.302 239.836C640.335 233.518 648.348 168.242 585.503 155.611C522.653 142.975 394.848 147.748 369.961 161.578C345.074 175.408 313.02 228.467 313.02 228.467V228.462Z" fill="#D88486"/>
<path d="M418.387 301.845H329.908C325.709 301.845 321.759 300.212 318.786 297.248L316.989 295.454C314.655 293.124 311.554 291.842 308.254 291.842H300.139V288.473H308.254C312.453 288.473 316.403 290.106 319.376 293.07L321.173 294.864C323.507 297.194 326.608 298.477 329.908 298.477H418.387C420.458 298.477 422.508 297.95 424.325 296.956L436.297 290.404C438.607 289.136 441.224 288.468 443.86 288.468H455.716V291.837H443.86C441.79 291.837 439.739 292.363 437.923 293.358L425.951 299.91C423.641 301.177 421.024 301.845 418.392 301.845H418.387Z" fill="#3A3E49"/>
<path d="M543.433 160.198C547.432 160.564 550.206 164.332 549.41 168.257C548.013 175.13 546.119 186.504 545.855 198.559C545.435 217.932 555.557 229.725 523.497 231.831C491.443 233.937 316.457 234.697 317.722 228.804C318.986 222.91 363.214 166.697 375.87 162.767C387.109 159.277 511.022 157.224 543.433 160.203V160.198Z" fill="#3A3E49"/>
<path d="M288.694 358.736C288.694 364.318 284.587 370.246 278.22 370.246C271.853 370.246 267.747 364.318 267.747 358.736C267.747 353.154 272.908 347.928 279.275 347.928C285.642 347.928 288.694 353.154 288.694 358.736Z" fill="#3A3E49"/>
<path d="M490.95 358.736C490.95 364.318 486.843 370.246 480.476 370.246C474.109 370.246 470.003 364.318 470.003 358.736C470.003 353.154 475.164 347.928 481.531 347.928C487.898 347.928 490.95 353.154 490.95 358.736Z" fill="#3A3E49"/>
<path d="M251.435 320.692C251.435 320.692 250.312 329.535 267.743 331.851C285.179 334.166 300.364 329.954 304.578 344.272C308.796 358.59 300.359 372.069 328.2 375.857C356.041 379.645 427.211 383.857 431.274 372.488C435.336 361.12 426.904 342.166 444.618 338.798C462.332 335.429 502.824 339.641 512.526 334.166C522.228 328.692 522.648 321.955 516.745 317.318C510.842 312.687 290.657 313.106 278.216 313.106C265.775 313.106 251.43 311.844 251.43 320.687L251.435 320.692Z" fill="#3A3E49"/>
<path d="M323.986 329.525L420.58 324.231V346.383H322.087L323.986 329.525Z" fill="#DADADA"/>
<path d="M612.533 256.459C613.568 260.155 612.357 263.723 609.833 264.425C607.308 265.127 604.423 262.699 603.393 259.004C602.357 255.309 603.568 251.74 606.093 251.038C608.617 250.336 611.503 252.764 612.533 256.459Z" fill="#3A3E49"/>
<path d="M647.908 252.476C648.943 256.172 647.732 259.74 645.208 260.442C642.684 261.144 639.798 258.716 638.768 255.021C637.732 251.326 638.943 247.757 641.468 247.055C643.992 246.353 646.878 248.781 647.908 252.476Z" fill="#3A3E49"/>
<path d="M634.633 227.058C634.633 227.058 634.857 194.772 616.576 181.575C598.301 168.378 571.866 162.485 566.802 166.414C561.739 170.343 560.899 222.003 565.396 227.058C569.893 232.114 629.906 232.114 634.628 227.058H634.633Z" fill="#3A3E49"/>
<path d="M578.329 240.889C578.329 240.889 570.102 233.098 574.321 220.043C578.539 206.988 611.019 215.831 614.393 222.359C617.767 228.886 604.481 240.045 595.624 241.942C586.767 243.838 588.666 259.838 581.913 258.999C575.165 258.156 569.804 253.525 573.12 250.575C576.43 247.626 582.548 243.414 578.329 240.889Z" fill="#BE686A"/>
<path d="M511.445 266.657C490.529 271.018 454.084 284.002 455.91 292.692C457.005 297.903 463.458 299.376 476.429 299.716C499.711 300.326 536.44 299.685 531.652 276.9C529.827 268.21 532.36 262.296 511.445 266.657Z" fill="#F7F7F7"/>
<path d="M277.701 268.684C290.796 271.885 313.034 282.749 310.912 291.372C309.9 295.483 306.946 297.45 301.531 298.587C283.685 302.333 259.134 297.475 263.488 279.779C265.61 271.157 264.605 265.483 277.701 268.684Z" fill="#F7F7F7"/>
</svg>
