<svg viewBox="0 0 41 41" fill="none" xmlns="http://www.w3.org/2000/svg">
<path d="M20.5 23.9167C20.016 23.9167 19.61 23.7527 19.282 23.4247C18.954 23.0967 18.7905 22.6913 18.7917 22.2084C18.7917 21.7244 18.9557 21.3184 19.2837 20.9904C19.6117 20.6624 20.0171 20.4989 20.5 20.5001C20.984 20.5001 21.39 20.6641 21.718 20.9921C22.046 21.3201 22.2095 21.7255 22.2083 22.2084C22.2083 22.6924 22.0443 23.0985 21.7163 23.4265C21.3883 23.7545 20.9829 23.9179 20.5 23.9167ZM13.6667 23.9167C13.1826 23.9167 12.7766 23.7527 12.4486 23.4247C12.1206 23.0967 11.9572 22.6913 11.9583 22.2084C11.9583 21.7244 12.1223 21.3184 12.4503 20.9904C12.7783 20.6624 13.1838 20.4989 13.6667 20.5001C14.1507 20.5001 14.5567 20.6641 14.8847 20.9921C15.2127 21.3201 15.3761 21.7255 15.375 22.2084C15.375 22.6924 15.211 23.0985 14.883 23.4265C14.555 23.7545 14.1496 23.9179 13.6667 23.9167ZM27.3333 23.9167C26.8493 23.9167 26.4433 23.7527 26.1153 23.4247C25.7873 23.0967 25.6239 22.6913 25.625 22.2084C25.625 21.7244 25.789 21.3184 26.117 20.9904C26.445 20.6624 26.8504 20.4989 27.3333 20.5001C27.8174 20.5001 28.2234 20.6641 28.5514 20.9921C28.8794 21.3201 29.0428 21.7255 29.0417 22.2084C29.0417 22.6924 28.8777 23.0985 28.5497 23.4265C28.2217 23.7545 27.8162 23.9179 27.3333 23.9167ZM20.5 30.7501C20.016 30.7501 19.61 30.5861 19.282 30.2581C18.954 29.9301 18.7905 29.5246 18.7917 29.0417C18.7917 28.5577 18.9557 28.1517 19.2837 27.8237C19.6117 27.4957 20.0171 27.3323 20.5 27.3334C20.984 27.3334 21.39 27.4974 21.718 27.8254C22.046 28.1534 22.2095 28.5589 22.2083 29.0417C22.2083 29.5258 22.0443 29.9318 21.7163 30.2598C21.3883 30.5878 20.9829 30.7512 20.5 30.7501ZM13.6667 30.7501C13.1826 30.7501 12.7766 30.5861 12.4486 30.2581C12.1206 29.9301 11.9572 29.5246 11.9583 29.0417C11.9583 28.5577 12.1223 28.1517 12.4503 27.8237C12.7783 27.4957 13.1838 27.3323 13.6667 27.3334C14.1507 27.3334 14.5567 27.4974 14.8847 27.8254C15.2127 28.1534 15.3761 28.5589 15.375 29.0417C15.375 29.5258 15.211 29.9318 14.883 30.2598C14.555 30.5878 14.1496 30.7512 13.6667 30.7501ZM27.3333 30.7501C26.8493 30.7501 26.4433 30.5861 26.1153 30.2581C25.7873 29.9301 25.6239 29.5246 25.625 29.0417C25.625 28.5577 25.789 28.1517 26.117 27.8237C26.445 27.4957 26.8504 27.3323 27.3333 27.3334C27.8174 27.3334 28.2234 27.4974 28.5514 27.8254C28.8794 28.1534 29.0428 28.5589 29.0417 29.0417C29.0417 29.5258 28.8777 29.9318 28.5497 30.2598C28.2217 30.5878 27.8162 30.7512 27.3333 30.7501ZM8.54167 37.5834C7.60209 37.5834 6.79746 37.2486 6.12779 36.5789C5.45813 35.9092 5.12386 35.1052 5.125 34.1667V10.2501C5.125 9.3105 5.45984 8.50587 6.1295 7.83621C6.79917 7.16654 7.60323 6.83228 8.54167 6.83341H10.25V3.41675H13.6667V6.83341H27.3333V3.41675H30.75V6.83341H32.4583C33.3979 6.83341 34.2025 7.16825 34.8722 7.83791C35.5419 8.50758 35.8761 9.31164 35.875 10.2501V34.1667C35.875 35.1063 35.5402 35.911 34.8705 36.5806C34.2008 37.2503 33.3968 37.5846 32.4583 37.5834H8.54167ZM8.54167 34.1667H32.4583V17.0834H8.54167V34.1667Z" fill="#294A54"/>
</svg>
