<svg width="48" height="48" viewBox="0 0 48 48" fill="none" xmlns="http://www.w3.org/2000/svg">
<path d="M24.0003 32.6666C11.5203 32.6666 9.31027 20.2299 8.92027 10.3629C8.80977 7.61994 8.7556 6.24627 9.78693 4.97877C10.8161 3.70911 12.0489 3.50111 14.5168 3.08511C17.6515 2.57134 20.8237 2.31986 24.0003 2.33327C27.8656 2.33327 31.0484 2.67344 33.4838 3.08511C35.9516 3.50111 37.1844 3.70911 38.2158 4.97877C39.2471 6.24844 39.1908 7.61994 39.0824 10.3629C38.6924 20.2278 36.4824 32.6666 24.0024 32.6666H24.0003Z" stroke="#294A54" stroke-width="3"/>
<path d="M24.001 32.6665V39.1665" stroke="#294A54" stroke-width="3" stroke-linecap="round"/>
<path d="M31.5837 45.6667H16.417L17.1537 41.992C17.2518 41.501 17.517 41.0592 17.9041 40.7416C18.2912 40.424 18.7763 40.2503 19.277 40.25H28.7237C29.2244 40.2503 29.7095 40.424 30.0966 40.7416C30.4837 41.0592 30.7489 41.501 30.847 41.992L31.5837 45.6667Z" stroke="#294A54" stroke-width="3" stroke-linecap="round" stroke-linejoin="round"/>
<path d="M39.1673 8.83325L41.2235 9.51792C43.3685 10.2329 44.441 10.5904 45.0542 11.4419C45.6673 12.2934 45.6673 13.4244 45.6673 15.6843V15.8424C45.6673 17.7058 45.6673 18.6396 45.2188 19.4023C44.7703 20.1649 43.9535 20.6178 42.3242 21.5256L35.9173 25.0833M8.83398 8.83325L6.77782 9.51792C4.63282 10.2329 3.56032 10.5904 2.94715 11.4419C2.33398 12.2934 2.33398 13.4266 2.33398 15.6843V15.8424C2.33398 17.7058 2.33398 18.6396 2.78248 19.4023C3.23098 20.1649 4.04782 20.6178 5.67715 21.5256L12.084 25.0833M22.1503 11.0498C22.9737 9.56992 23.3853 8.83325 24.0007 8.83325C24.616 8.83325 25.0277 9.56992 25.851 11.0498L26.0633 11.4311C26.2973 11.8514 26.4143 12.0594 26.5963 12.1981C26.7805 12.3368 27.008 12.3888 27.463 12.4906L27.8747 12.5859C29.4737 12.9478 30.2732 13.1276 30.4638 13.7386C30.6545 14.3518 30.1085 14.9888 29.0187 16.2628L28.737 16.5921C28.4272 16.9539 28.2712 17.1338 28.2018 17.3591C28.1325 17.5844 28.1563 17.8249 28.2018 18.3081L28.2452 18.7479C28.4098 20.4488 28.4922 21.3003 27.996 21.6773C27.4977 22.0543 26.748 21.7098 25.2508 21.0208L24.8652 20.8431C24.4383 20.6481 24.226 20.5506 24.0007 20.5506C23.7753 20.5506 23.563 20.6481 23.1362 20.8431L22.7505 21.0208C21.2533 21.7119 20.5037 22.0543 20.0053 21.6773C19.507 21.3003 19.5915 20.4488 19.7562 18.7479L19.7995 18.3081C19.845 17.8249 19.8688 17.5844 19.7995 17.3591C19.7302 17.1359 19.5742 16.9539 19.2643 16.5921L18.9827 16.2628C17.8928 14.9888 17.3468 14.3518 17.5375 13.7386C17.7282 13.1276 18.5277 12.9478 20.1267 12.5859L20.5383 12.4906C20.9933 12.3888 21.2208 12.3389 21.405 12.1981C21.587 12.0594 21.704 11.8514 21.938 11.4311L22.1503 11.0498Z" stroke="#294A54" stroke-width="3"/>
<path d="M37.001 45.6665H11.001" stroke="#294A54" stroke-width="3" stroke-linecap="round"/>
</svg>
