<svg width="683" height="265" viewBox="0 0 683 265" fill="none" xmlns="http://www.w3.org/2000/svg">
<path d="M370.922 67.0493H312.473C303.45 67.0493 296.135 74.3794 296.135 83.4215C296.135 92.4637 303.45 99.7938 312.473 99.7938H370.922C379.945 99.7938 387.26 92.4637 387.26 83.4215C387.26 74.3794 379.945 67.0493 370.922 67.0493Z" fill="#EAEEF1"/>
<path d="M291.178 67.0493H232.728C223.705 67.0493 216.391 74.3794 216.391 83.4215C216.391 92.4637 223.705 99.7938 232.728 99.7938H291.178C300.201 99.7938 307.515 92.4637 307.515 83.4215C307.515 74.3794 300.201 67.0493 291.178 67.0493Z" fill="#EAEEF1"/>
<path d="M450.669 67.0493H392.22C383.197 67.0493 375.882 74.3794 375.882 83.4215C375.882 92.4637 383.197 99.7938 392.22 99.7938H450.669C459.692 99.7938 467.007 92.4637 467.007 83.4215C467.007 74.3794 459.692 67.0493 450.669 67.0493Z" fill="#EAEEF1"/>
<path d="M142.617 58.1887C142.617 58.1887 157.974 34.0336 169.499 42.0026C181.021 49.9716 161.188 111.656 161.188 111.656L176.45 99.0908L193.829 38.7535H501.023L512.656 88.2139L525.712 95.5807C525.712 95.5807 506.146 19.7628 528.433 42.0026L507.025 16.2138L446.128 9.71045H193.775L161.188 25.5089L142.62 58.1861L142.617 58.1887Z" fill="#EAEEF1"/>
<path d="M525.712 95.5806L565.968 111.071L594.451 186.969L485.029 205.187L525.712 95.5806Z" fill="#EAEEF1"/>
<path d="M113.471 127.09L176.447 99.0884L160.02 186.97H89.0498L113.471 127.09Z" fill="#EAEEF1"/>
<path d="M158.694 141.647L167.827 109.51C172.929 91.5613 189.29 79.1826 207.912 79.1826H495.423C512.926 79.1826 528.565 90.1422 534.572 106.618L545.382 136.271C555.269 163.388 535.377 192.139 506.568 192.372L199.114 194.856C171.299 195.081 151.072 168.457 158.694 141.647Z" fill="#EAEEF1"/>
<path d="M589.942 195.308C589.942 195.308 593.347 155.84 607.446 145.607C621.547 135.374 672.114 136.348 680.381 152.428C688.647 168.509 677.464 186.429 641.482 186.969C605.501 187.512 606.473 195.308 606.473 195.308H589.942Z" fill="#31313C"/>
<path d="M561.345 206.066C561.345 206.066 571.129 92.0914 473.932 85.7405C352.901 77.831 360.076 131.319 363.53 218.492L561.345 206.066Z" fill="#31313C"/>
<path d="M428.389 72.1777L484.211 72.1777C493.496 72.1777 501.023 64.6347 501.023 55.3299V43.8042C501.023 34.4994 493.496 26.9564 484.211 26.9564L428.389 26.9564C419.105 26.9564 411.578 34.4994 411.578 43.8042V55.3299C411.578 64.6347 419.105 72.1777 428.389 72.1777Z" fill="#31313C"/>
<path d="M437.814 64.8032H435.436V94.3037H437.814V64.8032Z" fill="#31313C"/>
<path d="M391.689 53.8774H311.093C308.673 53.8774 306.806 51.5821 307.121 48.9947L308.962 33.8812C309.225 31.7307 310.923 30.1255 312.934 30.1255H389.986C392.014 30.1255 393.718 31.7565 393.964 33.9252L395.666 49.0386C395.955 51.6105 394.092 53.8774 391.689 53.8774Z" fill="#31313C"/>
<path d="M353.365 13.1973H349.37V32.038H353.365V13.1973Z" fill="#31313C"/>
<path d="M143.966 239.922C143.966 239.922 126.154 101.73 219.927 94.9342C336.695 86.4715 329.772 143.697 326.44 236.967L143.966 239.922Z" fill="#31313C"/>
<path d="M265.444 32.0381H208.372C198.608 32.0381 190.693 39.97 190.693 49.7544V62.7069C190.693 72.4914 198.608 80.4233 208.372 80.4233H265.444C275.208 80.4233 283.123 72.4914 283.123 62.7069V49.7544C283.123 39.97 275.208 32.0381 265.444 32.0381Z" fill="#31313C"/>
<path d="M219.94 76.166H214.294V102.529H219.94V76.166Z" fill="#31313C"/>
<path d="M258.052 76.166H252.406V102.529H258.052V76.166Z" fill="#31313C"/>
<path d="M94.0229 202.515C94.0229 202.515 90.6182 163.047 76.5197 152.814C62.4186 142.58 11.8511 143.555 3.58442 159.635C-4.68228 175.715 6.50162 193.636 42.483 194.176C78.4645 194.719 77.4921 202.515 77.4921 202.515H94.0229Z" fill="#31313C"/>
<path d="M206.102 172.471C206.102 172.471 199.298 189.187 186.133 188.019C171.395 186.711 171.529 149.079 171.529 149.079C171.529 149.079 204.103 159.211 206.102 172.471Z" fill="white"/>
<path d="M187.639 188.513C194.503 188.513 200.059 181.603 200.126 181.518L199.607 181.107C199.53 181.205 191.702 190.937 183.407 186.845C175.225 182.81 172.963 167.842 171.738 152.266L171.078 152.317C172.318 168.087 174.637 183.258 183.115 187.44C184.655 188.2 186.177 188.513 187.639 188.513Z" fill="#080435"/>
<path d="M277.569 123.76C269.161 106.933 231.97 107.933 216.695 114.791C197.972 123.197 189.594 163.447 199.765 168.992L199.164 200.62C225.052 217.439 281.152 220.011 283.711 211.15C286.27 202.289 284.97 138.566 277.569 123.758V123.76Z" fill="#E57979"/>
<path d="M211.704 111.167L214.377 111.219C214.088 109.376 213.729 106.457 213.786 103.547C213.786 103.547 214.74 107.827 216.347 111.257L236.646 111.653L216.873 54.1821C216.873 54.1821 202.388 68.8174 211.702 111.164L211.704 111.167Z" fill="#666564"/>
<path d="M239.208 90.4398L236.619 91.0351C232.663 91.9445 230.192 95.8952 231.1 99.8593L233.927 112.212C234.835 116.176 238.777 118.652 242.733 117.743L245.322 117.148C249.278 116.238 251.749 112.288 250.841 108.323L248.014 95.971C247.106 92.0068 243.164 89.5304 239.208 90.4398Z" fill="white"/>
<path d="M238.299 117.945C237.814 117.772 237.345 117.544 236.896 117.262C235.289 116.254 234.172 114.685 233.752 112.845L230.662 99.3469C229.788 95.5343 232.174 91.7191 235.978 90.8455L239.713 89.9873C243.517 89.1136 247.324 91.502 248.196 95.3146L251.286 108.813C251.707 110.653 251.384 112.553 250.378 114.163C249.372 115.773 247.807 116.893 245.97 117.314L242.235 118.172C240.912 118.477 239.556 118.394 238.299 117.945ZM243.448 90.817C242.331 90.419 241.09 90.3233 239.852 90.6077L236.117 91.4658C232.653 92.2619 230.484 95.7334 231.278 99.2048L234.369 112.703C234.753 114.378 235.769 115.804 237.232 116.722C238.694 117.64 240.42 117.934 242.091 117.552L245.826 116.694C247.497 116.309 248.921 115.29 249.839 113.824C250.755 112.359 251.049 110.63 250.667 108.955L247.577 95.4568C247.066 93.2287 245.457 91.533 243.45 90.817H243.448Z" fill="#31313B"/>
<path d="M250.701 85.4586C247.559 98.9333 237.095 107.996 227.33 105.698C217.562 103.4 212.917 88.3174 215.331 77.1407C218.253 63.6169 228.937 54.6036 238.702 56.9015C248.47 59.1994 253.84 71.984 250.701 85.4586Z" fill="white"/>
<path d="M227.252 106.021C217.335 103.689 212.527 88.5446 215.006 77.0706C216.677 69.3317 221.08 62.5569 226.778 58.9485C230.688 56.4722 234.838 55.6528 238.777 56.5808C248.705 58.9149 254.199 71.9036 251.021 85.5359C249.486 92.1194 246.182 97.8758 241.715 101.745C238.191 104.798 234.273 106.39 230.42 106.39C229.357 106.39 228.297 106.269 227.252 106.023V106.021ZM227.131 59.5094C221.581 63.0247 217.289 69.6419 215.653 77.2128C214.469 82.69 214.998 89.2012 217.069 94.6319C219.316 100.523 222.986 104.338 227.405 105.377C232.022 106.463 236.951 104.994 241.284 101.244C245.646 97.4674 248.875 91.8351 250.379 85.386C253.474 72.1104 248.202 59.4784 238.627 57.227C237.626 56.9918 236.61 56.8755 235.589 56.8755C232.767 56.8755 229.891 57.7646 227.134 59.512L227.131 59.5094Z" fill="#080435"/>
<path d="M225.31 97.227C225.112 97.1546 225.003 96.9375 225.073 96.7333C225.143 96.5291 225.362 96.4206 225.566 96.4878C225.615 96.5033 230.477 98.0903 234.665 94.88C234.836 94.7482 235.081 94.7818 235.212 94.9524C235.344 95.123 235.31 95.3685 235.14 95.5004C230.611 98.9692 225.529 97.2994 225.315 97.227C225.315 97.227 225.313 97.227 225.31 97.227Z" fill="#31313B"/>
<path d="M234.604 97.377C234.415 97.3098 234.307 97.1082 234.359 96.9091C234.818 95.167 234.235 94.1201 234.23 94.1098C234.124 93.9237 234.188 93.6833 234.374 93.5773C234.56 93.4713 234.8 93.536 234.905 93.7221C234.936 93.7764 235.651 95.061 235.112 97.1082C235.058 97.3176 234.843 97.4416 234.637 97.3873C234.627 97.3848 234.616 97.3822 234.606 97.377H234.604Z" fill="#31313B"/>
<path d="M232.31 80.4697C232.179 80.4567 232.055 80.3844 231.98 80.2629C231.854 80.0561 231.915 79.7873 232.122 79.6606C232.243 79.5856 234.877 77.5824 237.899 79.932C238.09 80.0793 238.134 80.3507 237.99 80.5446C237.845 80.7385 237.6 80.7359 237.378 80.6351C235.176 79.6477 232.682 80.343 232.581 80.405C232.498 80.4567 232.403 80.4774 232.313 80.4671L232.31 80.4697Z" fill="#31313B"/>
<path d="M218.867 80.1777C218.735 80.1647 218.611 80.0924 218.537 79.9709C218.41 79.7641 218.472 79.4953 218.678 79.3686C218.8 79.2937 221.433 77.2904 224.456 79.64C224.647 79.7874 224.691 80.0588 224.546 80.2526C224.402 80.4465 224.157 80.4439 223.935 80.3431C221.732 79.3557 219.238 80.051 219.138 80.113C219.055 80.1647 218.96 80.1854 218.869 80.1751L218.867 80.1777Z" fill="#31313B"/>
<path d="M236.53 84.6211C236.742 85.6446 236.314 86.601 235.573 86.7561C234.833 86.9112 234.064 86.2056 233.853 85.1794C233.641 84.1558 234.07 83.1994 234.81 83.0443C235.55 82.8892 236.319 83.5949 236.53 84.6211Z" fill="#31313B"/>
<path d="M223.807 85.019C224.018 86.0426 223.59 86.999 222.85 87.1541C222.109 87.3092 221.341 86.6035 221.129 85.5773C220.918 84.5537 221.346 83.5974 222.086 83.4423C222.826 83.2872 223.595 83.9928 223.807 85.019Z" fill="#31313B"/>
<path d="M226.925 93.0138C225.8 92.6106 225.179 91.8816 225.142 91.8377C225.006 91.6723 225.026 91.4267 225.191 91.2871C225.356 91.1501 225.602 91.1708 225.738 91.3362C225.782 91.3905 226.832 92.6028 228.692 92.4865C228.906 92.4736 229.091 92.6364 229.104 92.851C229.117 93.0655 228.955 93.2516 228.741 93.2645C228.039 93.3085 227.43 93.1947 226.925 93.0138Z" fill="#31313B"/>
<path d="M188.348 163.972L173.44 156.952C170.213 155.432 167.933 151.056 168.346 147.174L171.82 114.491C172.233 110.609 175.183 108.693 178.408 110.213L193.316 117.234C196.543 118.754 198.823 123.13 198.41 127.012L194.936 159.695C194.523 163.577 191.572 165.492 188.348 163.972Z" fill="white"/>
<path d="M188.163 164.37L173.254 157.35C169.878 155.76 167.482 151.175 167.912 147.13L171.387 114.447C171.611 112.338 172.584 110.65 174.056 109.82C175.387 109.068 176.999 109.068 178.593 109.82L193.502 116.841C196.878 118.431 199.274 123.016 198.843 127.061L195.369 159.744C195.145 161.853 194.172 163.541 192.7 164.37C192.034 164.745 191.299 164.934 190.53 164.934C189.762 164.934 188.96 164.745 188.163 164.37ZM174.487 110.586C173.264 111.276 172.449 112.718 172.256 114.543L168.782 147.225C168.387 150.929 170.561 155.117 173.626 156.562L188.534 163.582C189.865 164.208 191.193 164.221 192.271 163.611C193.494 162.92 194.309 161.478 194.503 159.653L197.977 126.971C198.371 123.267 196.197 119.079 193.133 117.634L178.224 110.614C177.549 110.296 176.873 110.136 176.231 110.136C175.588 110.136 175.018 110.286 174.487 110.586Z" fill="#080435"/>
<path d="M185.715 160.609L173.52 154.871C170.881 153.63 169.112 149.844 169.571 146.414L173.422 117.544C173.878 114.116 176.388 112.343 179.027 113.584L191.222 119.322C193.86 120.563 195.63 124.35 195.171 127.78L191.32 156.649C190.863 160.077 188.354 161.85 185.715 160.609Z" fill="#294A54"/>
<path d="M183.762 134.681C183.618 136.382 182.439 137.261 181.132 136.643C179.824 136.025 178.882 134.144 179.027 132.44C179.171 130.739 180.35 129.861 181.658 130.478C182.965 131.096 183.907 132.978 183.762 134.681Z" fill="white"/>
<path d="M180.943 137.044C179.46 136.343 178.426 134.304 178.589 132.404C178.679 131.35 179.138 130.512 179.845 130.104C180.441 129.76 181.15 129.752 181.846 130.08C183.329 130.781 184.364 132.82 184.201 134.72C184.111 135.772 183.652 136.612 182.945 137.021C182.641 137.196 182.305 137.284 181.957 137.284C181.609 137.284 181.281 137.204 180.943 137.044ZM180.286 130.871C179.832 131.135 179.533 131.722 179.468 132.482C179.339 133.986 180.188 135.71 181.32 136.245C181.753 136.449 182.161 136.452 182.504 136.255C182.958 135.992 183.257 135.405 183.322 134.645C183.451 133.141 182.602 131.417 181.47 130.879C181.25 130.776 181.036 130.724 180.833 130.724C180.629 130.724 180.453 130.773 180.283 130.869L180.286 130.871Z" fill="#080435"/>
<path d="M205.782 156.942C204.652 153.727 202.388 148.288 202.346 144.879C202.088 142.271 200.923 132.335 198.882 132.968C196.68 133.653 196.607 140.066 196.899 144.357C194.451 142.705 190.342 140.991 188.067 140.803C185.684 140.606 183.997 141.767 184.026 143.612C181.544 143.788 180.592 144.731 180.316 145.582C179.63 147.694 181.593 149.045 184.552 149.348C182.873 149.733 181.632 149.767 180.569 150.431C179.857 150.876 179.138 152.049 179.078 152.889C179.019 153.729 180.476 154.587 181.596 154.786C183.009 155.04 184.879 155.071 185.968 154.978C186.68 154.916 186.221 154.985 186.974 155.205C187.149 156.376 187.972 159.359 188.103 159.899C188.586 161.91 191.441 163.215 193.481 164.193C194.469 164.666 206.842 159.961 205.782 156.94V156.942Z" fill="white"/>
<path d="M194.191 147.905C194.278 147.905 194.364 147.869 194.425 147.797C194.536 147.668 194.523 147.471 194.395 147.36C194.204 147.194 189.659 143.31 184.028 143.302C183.858 143.302 183.719 143.441 183.719 143.612C183.719 143.783 183.858 143.922 184.028 143.922C189.424 143.93 193.943 147.789 193.99 147.828C194.049 147.879 194.121 147.903 194.193 147.903L194.191 147.905Z" fill="#080435"/>
<path d="M191.444 151.672C191.536 151.672 191.629 151.63 191.691 151.55C191.794 151.413 191.769 151.219 191.632 151.116C191.524 151.033 188.921 149.084 185.346 149.082C185.176 149.082 185.037 149.221 185.037 149.392C185.037 149.562 185.176 149.702 185.346 149.702C188.715 149.702 191.232 151.589 191.258 151.61C191.315 151.653 191.379 151.672 191.446 151.672H191.444Z" fill="#080435"/>
<path d="M203.646 152.84C203.646 152.84 218.346 167.206 232.424 171.51C235.532 172.461 245.862 135.689 245.862 135.689L260.925 143.894L270.812 150.312C270.812 150.312 258.206 197.694 237.949 197.694C216.432 197.694 193.778 164.492 193.778 164.492L203.649 152.837L203.646 152.84Z" fill="white"/>
<path d="M240.154 176.798C240.224 176.798 240.293 176.778 240.353 176.731C240.5 176.623 240.528 176.413 240.42 176.269C240.311 176.126 237.73 172.743 232.519 171.192C232.344 171.14 232.161 171.239 232.109 171.414C232.058 171.59 232.158 171.774 232.331 171.825C237.325 173.309 239.868 176.63 239.891 176.664C239.956 176.749 240.056 176.796 240.157 176.796L240.154 176.798Z" fill="#080435"/>
<path d="M197.082 165.112C197.572 165.112 197.882 165.084 197.931 165.079C198.111 165.061 198.245 164.9 198.227 164.717C198.209 164.533 198.049 164.404 197.866 164.42C197.82 164.425 193.154 164.836 190.159 162.109C188.47 160.571 187.616 158.319 187.616 155.419C187.616 155.236 187.469 155.088 187.286 155.088C187.103 155.088 186.956 155.236 186.956 155.419C186.956 158.518 187.887 160.935 189.721 162.602C192.166 164.828 195.527 165.112 197.082 165.112Z" fill="#080435"/>
<path d="M238.299 198.108C238.929 198.108 239.556 198.082 240.182 198.025C247.709 197.358 255.246 189.156 262.586 173.645C268.026 162.153 271.322 150.705 271.356 150.591C271.408 150.415 271.304 150.232 271.129 150.18C270.954 150.131 270.77 150.232 270.719 150.407C270.59 150.862 257.541 195.82 240.126 197.363C217.928 199.33 194.665 164.66 194.433 164.309C194.333 164.156 194.129 164.115 193.974 164.215C193.822 164.316 193.781 164.523 193.881 164.676C193.94 164.763 199.834 173.604 208.428 182.082C215.963 189.516 227.098 198.105 238.299 198.105V198.108Z" fill="#080435"/>
<path d="M232.576 171.846C232.728 171.846 232.886 171.802 233.048 171.717C235.485 170.411 239.692 157.312 241.072 153.008C243.817 144.457 246.135 136.044 246.159 135.958C246.205 135.793 246.107 135.622 245.942 135.576C245.777 135.529 245.607 135.627 245.56 135.793C243.002 145.096 235.712 169.584 232.754 171.169C232.61 171.246 232.542 171.223 232.519 171.215C223.719 168.284 212.483 159.974 207.232 155.525C204.596 153.292 203.628 150.035 203.082 147.445C202.811 146.166 202.61 144.729 202.481 143.17C201.978 137.013 201.103 133.753 199.734 132.913C199.272 132.632 198.751 132.606 198.186 132.841C196.561 133.516 196.631 141.208 196.705 143.881C194.959 142.782 189.166 139.401 185.87 140.735C184.815 141.162 184.116 142.02 183.783 143.289C183.198 143.276 181.807 143.354 180.838 144.222C180.188 144.804 179.852 145.623 179.839 146.657C179.832 147.259 180.048 147.792 180.484 148.234C180.997 148.756 181.756 149.089 182.524 149.306C182.47 149.319 182.416 149.33 182.362 149.345C180.28 149.852 179.055 150.994 178.818 152.654C178.735 153.238 178.875 153.739 179.238 154.137C179.955 154.928 181.531 155.275 183.928 155.166C186.819 155.032 188.663 156.254 188.681 156.267C188.823 156.363 189.017 156.327 189.112 156.185C189.207 156.042 189.171 155.851 189.029 155.753C188.949 155.699 187.012 154.406 183.902 154.546C181.16 154.672 180.102 154.166 179.7 153.721C179.465 153.46 179.378 153.142 179.434 152.742C179.844 149.867 183.757 149.681 184.97 149.689C185.186 149.699 185.328 149.699 185.349 149.702C185.516 149.702 185.653 149.57 185.658 149.402C185.663 149.234 185.537 149.092 185.372 149.081C185.354 149.081 185.215 149.071 184.985 149.069C184.113 149.019 181.911 148.802 180.928 147.802C180.608 147.476 180.456 147.107 180.461 146.67C180.471 145.817 180.737 145.153 181.25 144.69C182.277 143.767 183.979 143.922 183.997 143.922C184.155 143.938 184.296 143.832 184.33 143.679C184.59 142.464 185.168 141.691 186.102 141.314C189.628 139.887 196.791 144.674 196.863 144.723C196.961 144.788 197.085 144.793 197.188 144.736C197.288 144.68 197.35 144.571 197.348 144.455C197.159 139.329 197.51 133.797 198.426 133.417C198.808 133.26 199.122 133.268 199.414 133.446C200.569 134.152 201.395 137.442 201.867 143.222C201.996 144.806 202.202 146.272 202.478 147.577C202.811 149.154 203.698 153.346 206.834 156.004C208.292 157.237 221.379 168.16 232.326 171.807C232.408 171.836 232.491 171.849 232.579 171.849L232.576 171.846Z" fill="#080435"/>
<path d="M238.429 62.0296C238.429 62.0296 228.202 82.6616 214.315 86.5027C214.315 86.5027 207.982 59.4577 219.001 52.3391C230.02 45.218 239.723 53.5902 238.429 62.0296Z" fill="#666564"/>
<path d="M234.843 59.7009C234.843 59.7009 234.608 79.0379 248.519 85.8075C248.519 85.8075 246.288 107.114 242.254 111.193L273.711 111.808C273.711 111.808 279.491 67.4863 256.773 52.2307C234.054 36.9751 217.1 52.5616 215.545 56.0097C213.989 59.4605 234.843 59.7009 234.843 59.7009Z" fill="#666564"/>
<path d="M251.338 89.8556C249.326 91.5977 246.672 91.8149 245.411 90.3415C244.149 88.8682 245.129 85.9835 246.767 84.5153C248.751 82.7396 251.433 82.556 252.695 84.0294C253.956 85.5027 253.35 88.1108 251.338 89.8556Z" fill="white"/>
<path d="M241.606 133.629C255.31 139.158 269.507 149.081 269.507 149.081L278.862 134.392L272.777 121.22L259.778 116.802L248.147 127.552C248.147 127.552 239.842 132.916 241.606 133.627V133.629Z" fill="#E57979"/>
<path d="M270.915 149.965C270.915 149.965 277.061 154.135 275.171 156.639C273.278 159.144 268.753 157.182 268.753 157.182L270.917 149.965H270.915Z" fill="#31313B"/>
<path d="M271.691 151.591L272.194 151.159C268.905 147.305 244.944 134.518 243.118 134.068C242.38 133.888 241.879 133.991 241.637 134.373C240.884 135.552 243.548 139.062 244.384 140.109L244.9 139.696C243.324 137.718 241.861 135.252 242.194 134.73C242.248 134.642 242.48 134.593 242.96 134.712C244.766 135.157 268.446 147.783 271.691 151.588V151.591Z" fill="#080435"/>
<path d="M167.322 117.735C169.282 117.177 173.012 116.898 175.462 118.128C177.915 119.359 177.709 122.372 173.265 122.848C171.243 123.065 168.49 123.533 167.301 123.316C164.418 122.786 164.106 118.65 167.319 117.735H167.322Z" fill="white"/>
<path d="M167.245 123.639C165.792 123.373 164.768 122.205 164.699 120.734C164.624 119.178 165.62 117.875 167.232 117.415C169.169 116.864 172.999 116.518 175.612 117.831C176.847 118.451 177.523 119.545 177.327 120.617C177.082 121.974 175.576 122.933 173.301 123.176C172.806 123.231 172.266 123.298 171.717 123.368C170.412 123.533 169.076 123.701 168.091 123.701C167.766 123.701 167.479 123.683 167.245 123.639ZM167.412 118.053C165.826 118.506 165.315 119.764 165.359 120.703C165.403 121.595 165.952 122.729 167.363 122.988C168.209 123.143 170.028 122.913 171.635 122.709C172.189 122.639 172.731 122.569 173.231 122.517C175.199 122.305 176.486 121.553 176.677 120.499C176.816 119.723 176.282 118.906 175.315 118.423C174.093 117.81 172.545 117.591 171.085 117.591C169.625 117.591 168.289 117.803 167.412 118.051V118.053Z" fill="#080435"/>
<path d="M167.412 122.259C169.373 121.7 173.102 121.421 175.553 122.652C178.006 123.882 177.799 126.896 173.355 127.371C171.333 127.589 168.581 128.056 167.392 127.839C164.508 127.309 164.196 123.174 167.41 122.259H167.412Z" fill="white"/>
<path d="M167.335 128.165C165.883 127.899 164.859 126.73 164.789 125.26C164.714 123.704 165.71 122.401 167.322 121.941C169.259 121.39 173.089 121.044 175.702 122.357C176.938 122.977 177.613 124.073 177.417 125.143C177.172 126.503 175.666 127.459 173.391 127.702C172.896 127.757 172.357 127.824 171.807 127.894C170.502 128.059 169.166 128.227 168.181 128.227C167.856 128.227 167.57 128.209 167.335 128.165ZM167.503 122.579C165.916 123.032 165.406 124.29 165.449 125.229C165.493 126.12 166.043 127.255 167.454 127.514C168.3 127.669 170.118 127.439 171.725 127.234C172.279 127.165 172.821 127.095 173.321 127.043C175.289 126.831 176.577 126.079 176.767 125.024C176.907 124.249 176.373 123.435 175.406 122.949C174.183 122.334 172.635 122.117 171.175 122.117C169.716 122.117 168.382 122.328 167.505 122.577L167.503 122.579Z" fill="#080435"/>
<path d="M167.399 127.028C169.055 126.557 172.202 126.319 174.273 127.359C176.344 128.398 176.169 130.941 172.419 131.344C170.711 131.528 168.387 131.923 167.386 131.737C164.952 131.29 164.688 127.801 167.402 127.028H167.399Z" fill="white"/>
<path d="M167.325 132.063C166.074 131.833 165.194 130.827 165.132 129.563C165.068 128.225 165.922 127.103 167.307 126.71C168.95 126.242 172.2 125.95 174.418 127.064C175.483 127.599 176.061 128.545 175.893 129.473C175.682 130.644 174.395 131.466 172.45 131.675C172.032 131.719 171.578 131.776 171.116 131.836C170.012 131.975 168.883 132.117 168.047 132.117C167.768 132.117 167.523 132.102 167.322 132.066L167.325 132.063ZM167.49 127.346C166.18 127.718 165.756 128.757 165.795 129.53C165.831 130.264 166.283 131.197 167.446 131.409C168.153 131.538 169.685 131.344 171.039 131.174C171.506 131.114 171.965 131.058 172.385 131.011C174.023 130.835 175.094 130.215 175.248 129.349C175.362 128.718 174.921 128.051 174.126 127.651C173.102 127.136 171.805 126.953 170.577 126.953C169.349 126.953 168.227 127.131 167.49 127.341V127.346Z" fill="#080435"/>
<path d="M523.383 115.189C523.383 115.189 565.66 167.201 552.47 191.87C539.279 216.54 507.592 187.76 507.502 186.566C507.412 185.372 494.121 139.533 494.121 139.533L523.383 115.189Z" fill="white"/>
<path d="M537.061 202.313C535.477 202.313 533.819 202.129 532.088 201.765C525.446 200.359 519.091 196.559 514.93 193.618C510.994 190.836 507.074 187.36 507.017 186.602C506.862 185.377 497.319 152.307 493.654 139.667L493.563 139.36L493.808 139.156L523.45 114.499L523.759 114.879C523.865 115.008 534.458 128.1 543.298 144.038C548.498 153.416 552.086 161.933 553.961 169.357C556.323 178.706 555.965 186.357 552.898 192.095C550.504 196.57 547.337 199.614 543.478 201.142C541.518 201.92 539.369 202.308 537.058 202.308L537.061 202.313ZM507.974 186.44C508.802 187.869 523.775 201.217 536.883 201.341C536.945 201.341 537.004 201.341 537.066 201.341C543.563 201.341 548.601 198.079 552.044 191.64C554.995 186.124 555.323 178.708 553.022 169.602C551.167 162.261 547.61 153.819 542.452 144.517C534.497 130.171 525.119 118.151 523.316 115.882L494.678 139.704C496.372 145.548 507.525 184.054 507.974 186.442V186.44ZM507.982 186.489C507.982 186.504 507.987 186.517 507.987 186.528C507.987 186.515 507.984 186.502 507.982 186.489Z" fill="#31313C"/>
<path d="M542.976 165.177C542.811 165.177 542.651 165.094 542.56 164.944C542.48 164.81 534.348 151.591 526.208 149.427C525.947 149.358 525.792 149.091 525.862 148.83C525.932 148.569 526.197 148.414 526.458 148.484C530.051 149.44 533.994 152.421 538.183 157.347C541.278 160.989 543.368 164.401 543.388 164.438C543.528 164.668 543.455 164.967 543.226 165.107C543.146 165.156 543.058 165.179 542.973 165.179L542.976 165.177Z" fill="#31313C"/>
<path d="M399.702 115.189C399.702 115.189 357.425 167.201 370.615 191.87C383.806 216.54 415.493 187.76 415.583 186.566C415.673 185.372 428.965 139.533 428.965 139.533L399.702 115.189Z" fill="white"/>
<path d="M386.024 202.313C383.713 202.313 381.567 201.922 379.604 201.147C375.748 199.617 372.578 196.574 370.185 192.1C367.118 186.362 366.759 178.713 369.122 169.361C370.997 161.938 374.585 153.418 379.785 144.043C388.624 128.103 399.218 115.013 399.323 114.884L399.633 114.504L429.519 139.365L429.432 139.672C425.766 152.312 416.223 185.382 416.068 186.615C416.011 187.365 412.091 190.841 408.155 193.623C403.992 196.564 397.636 200.364 390.997 201.77C389.269 202.137 387.608 202.318 386.024 202.318V202.313ZM399.772 115.879C397.969 118.149 388.586 130.178 380.631 144.524C375.475 153.824 371.918 162.264 370.066 169.604C367.765 178.708 368.096 186.121 371.044 191.637C374.487 198.076 379.524 201.338 386.022 201.338C386.084 201.338 386.143 201.338 386.205 201.338C399.313 201.214 414.283 187.866 415.114 186.437C415.565 184.048 426.716 145.542 428.41 139.698L399.772 115.876V115.879ZM415.104 186.488C415.104 186.488 415.101 186.512 415.098 186.527C415.098 186.517 415.098 186.504 415.104 186.488Z" fill="#31313C"/>
<path d="M459.981 105.457C395.013 100.215 411.116 216.188 411.116 216.188C411.116 216.188 432.743 244.515 508.831 220.696C508.831 220.696 525.423 110.741 459.981 105.457Z" fill="#294A54"/>
<path d="M395.691 115.189C395.691 115.189 452.898 63.0297 530.352 119.03C530.352 119.03 525.942 140.745 503.881 154.07L468.585 127.42L425.936 127.715L414.92 149.642C414.92 149.642 386.868 137.4 395.691 115.191V115.189Z" fill="#294A54"/>
<path d="M463.819 101.815L466.436 101.724C470.493 101.582 473.667 98.1706 473.526 94.1046L473.082 81.3718C472.94 77.3057 469.536 74.1246 465.479 74.2666L462.862 74.3582C458.805 74.5002 455.631 77.9114 455.772 81.9775L456.216 94.7103C456.358 98.7764 459.762 101.957 463.819 101.815Z" fill="white"/>
<path d="M458.021 100.376C456.59 99.0367 455.764 97.2273 455.697 95.2784L455.217 81.3695C455.078 77.3346 458.24 73.9381 462.267 73.7986L466.056 73.6667C468.003 73.6021 469.858 74.2974 471.289 75.6364C472.721 76.9753 473.546 78.7847 473.613 80.7336L474.093 94.6425C474.232 98.6774 471.07 102.074 467.043 102.213L463.254 102.345C463.167 102.348 463.082 102.35 462.997 102.35C461.147 102.35 459.388 101.655 458.021 100.376ZM467.007 101.123C470.433 101.004 473.125 98.1113 473.007 94.6787L472.527 80.7698C472.47 79.1129 471.766 77.5724 470.549 76.4325C469.329 75.2926 467.748 74.7007 466.094 74.7549L462.305 74.8868C458.88 75.0057 456.187 77.8981 456.306 81.3307L456.786 95.2396C456.842 96.8965 457.546 98.437 458.764 99.5769C459.984 100.717 461.565 101.314 463.218 101.254L467.007 101.123Z" fill="#31313C"/>
<path d="M450.502 72.4803C456.984 84.7219 469.398 90.7963 478.23 86.048C487.061 81.2971 487.678 65.4806 482.483 55.2783C476.2 42.9306 463.587 36.9623 454.756 41.7106C445.924 46.4615 444.02 60.236 450.502 72.4803Z" fill="white"/>
<path d="M466.471 87.4046C459.989 85.4298 453.84 79.9448 450.022 72.7357C443.412 60.2485 445.418 46.1147 454.5 41.232C458.106 39.2908 462.367 39.0039 466.819 40.3997C473.303 42.4339 479.341 47.9034 482.968 55.0298C488.343 65.5887 487.554 81.6482 478.485 86.5257C476.401 87.6476 474.095 88.211 471.66 88.211C469.981 88.211 468.24 87.9422 466.468 87.402L466.471 87.4046ZM455.013 42.191C446.46 46.7919 444.652 60.264 450.982 72.224C454.665 79.1823 460.574 84.4682 466.785 86.3603C470.84 87.5959 474.706 87.3219 477.969 85.5668C481.9 83.4524 484.423 78.8669 485.07 72.6505C485.671 66.8941 484.523 60.4915 481.995 55.526C478.498 48.653 472.702 43.3877 466.491 41.4414C464.745 40.8934 463.038 40.622 461.392 40.622C459.109 40.622 456.956 41.1467 455.011 42.1936L455.013 42.191Z" fill="#31313C"/>
<path d="M460.082 48.0381C460.082 48.0381 465.168 53.8565 461.487 56.767C457.807 59.6749 454.652 55.6917 454.652 55.6917C454.652 55.6917 462.934 63.2497 457.951 67.3286C452.968 71.4074 447.907 61.8074 447.907 61.8074L448.761 52.241L460.079 48.0381H460.082Z" fill="#666564"/>
<path d="M460.458 50.8994C460.458 50.8994 472.473 60.4426 483.902 49.6432C483.902 49.6432 489.881 39.5857 474.283 34.8425C474.283 34.8425 469.777 33.3046 465.625 34.46C465.625 34.46 471.503 31.764 467.562 28.9879C463.621 26.2118 456.597 28.564 450.595 34.3902C450.595 34.3902 452.674 28.4787 447.232 28.9595C441.789 29.4403 436.809 34.2429 437.402 43.145C437.402 43.145 436.084 40.9375 434.057 41.3046C432.029 41.6716 433.489 44.3857 435.395 44.9621C435.395 44.9621 430.26 43.4422 430.084 45.735C429.906 48.0277 434.743 47.3453 434.743 47.3453C434.743 47.3453 425.496 67.9101 444.343 73.5424C444.343 73.5424 439.254 80.9402 449.917 77.4067C449.917 77.4067 450.719 83.0623 454.335 78.2365C454.335 78.2365 453.505 77.0423 453.623 70.1408C453.848 56.9195 460.458 50.8994 460.458 50.8994Z" fill="#666564"/>
<path d="M473.432 74.8867C476.571 74.8867 478.846 73.3953 478.975 73.3074C479.225 73.1394 479.293 72.8008 479.125 72.55C478.957 72.2993 478.622 72.2321 478.372 72.4001C478.333 72.426 474.461 74.9462 470.071 73.1161C469.793 73.0024 469.476 73.1316 469.36 73.4108C469.244 73.69 469.375 74.0079 469.654 74.1242C470.99 74.6799 472.269 74.8841 473.432 74.8841V74.8867Z" fill="#31313C"/>
<path d="M470.443 75.75C470.533 75.75 470.626 75.7268 470.711 75.6777C470.972 75.5277 471.065 75.1969 470.915 74.9332C470.146 73.5762 470.376 72.5759 470.386 72.5345C470.456 72.245 470.281 71.9478 469.992 71.8754C469.7 71.8004 469.409 71.9736 469.331 72.2605C469.316 72.32 468.968 73.7054 469.966 75.4709C470.067 75.6466 470.25 75.7474 470.441 75.7474L470.443 75.75Z" fill="#31313C"/>
<path d="M468.199 60.1556C468.312 60.1143 468.408 60.0186 468.444 59.892C468.508 59.6774 468.387 59.4526 468.175 59.3879C468.052 59.3492 465.235 58.1886 463.102 61.006C462.968 61.1844 462.994 61.4351 463.166 61.5747C463.339 61.7143 463.559 61.6522 463.731 61.5101C465.457 60.1013 467.84 60.1298 467.946 60.1608C468.034 60.1866 468.121 60.1815 468.201 60.153L468.199 60.1556Z" fill="#31313C"/>
<path d="M480.089 56.6893C480.203 56.648 480.298 56.5523 480.334 56.4257C480.399 56.2111 480.278 55.9862 480.066 55.9216C479.942 55.8828 477.126 54.7223 474.993 57.5397C474.858 57.7181 474.884 57.9688 475.057 58.111C475.23 58.2505 475.449 58.1885 475.622 58.0463C477.347 56.6376 479.731 56.666 479.836 56.6971C479.924 56.7229 480.012 56.7177 480.092 56.6893H480.089Z" fill="#31313C"/>
<path d="M465.429 64.8729C465.483 65.8396 466.092 66.5918 466.785 66.553C467.479 66.5143 467.998 65.7 467.944 64.7333C467.889 63.7666 467.281 63.0144 466.587 63.0532C465.893 63.092 465.375 63.9062 465.429 64.8729Z" fill="#31313C"/>
<path d="M476.839 62.1952C476.894 63.1619 477.502 63.9141 478.196 63.8753C478.89 63.8365 479.408 63.0223 479.354 62.0556C479.3 61.0889 478.691 60.3367 477.997 60.3755C477.304 60.4142 476.785 61.2284 476.839 62.1952Z" fill="#31313C"/>
<path d="M474.818 70.6214C474.854 70.6214 474.89 70.6188 474.926 70.6111C477.067 70.1794 477.887 68.445 477.92 68.3726C478.047 68.0986 477.928 67.7755 477.655 67.6489C477.384 67.5222 477.062 67.6411 476.935 67.9125C476.907 67.9694 476.293 69.223 474.712 69.541C474.418 69.6004 474.227 69.8873 474.286 70.182C474.338 70.4405 474.565 70.6188 474.82 70.6188L474.818 70.6214Z" fill="#31313C"/>
<path d="M453.982 72.7723C456.182 73.8502 458.593 73.4108 459.37 71.7927C460.143 70.1746 458.591 67.8301 456.788 66.9125C454.603 65.7985 452.176 66.2741 451.4 67.8922C450.626 69.5103 451.781 71.697 453.982 72.7723Z" fill="white"/>
<path d="M530.352 119.03C530.352 119.03 531.776 144.395 508.609 154.07C485.441 163.742 485.73 123.714 486.592 123.138C487.453 122.561 530.352 119.03 530.352 119.03Z" fill="#294A54"/>
<path d="M530.316 186.566H518.823C518.823 171.59 512.695 157.497 501.57 146.879C490.365 136.188 475.452 130.3 459.571 130.3C443.69 130.3 428.777 136.188 417.572 146.879C406.445 157.495 400.319 171.59 400.319 186.566H388.826C388.826 168.408 396.221 151.35 409.648 138.537C422.999 125.8 440.729 118.782 459.574 118.782C478.418 118.782 496.148 125.797 509.499 138.537C522.927 151.35 530.322 168.408 530.322 186.566H530.316Z" fill="#31313C"/>
<path d="M380.11 165.177C380.025 165.177 379.937 165.154 379.857 165.105C379.628 164.965 379.556 164.665 379.695 164.435C379.716 164.401 381.805 160.987 384.9 157.345C389.089 152.418 393.035 149.438 396.625 148.482C396.883 148.412 397.152 148.567 397.221 148.828C397.291 149.089 397.136 149.355 396.876 149.425C388.733 151.591 380.605 164.81 380.523 164.942C380.433 165.092 380.27 165.174 380.108 165.174L380.11 165.177Z" fill="#31313C"/>
<path d="M415.032 125.609C417.103 127.356 420.18 131.264 420.642 134.888C421.103 138.512 417.621 140.531 413.799 135.981C412.06 133.911 409.499 131.22 408.857 129.747C407.301 126.169 411.635 122.742 415.032 125.606V125.609Z" fill="white"/>
<path d="M415.4 125.169C417.464 126.911 420.714 130.915 421.209 134.818C421.449 136.708 420.709 138.323 419.323 138.931C417.585 139.698 415.354 138.732 413.357 136.356C412.934 135.852 412.46 135.309 411.978 134.756C410.44 132.996 408.849 131.176 408.33 129.982C407.521 128.121 408.067 126.058 409.69 124.846C410.373 124.334 411.139 124.047 411.926 123.98C413.115 123.879 414.348 124.28 415.403 125.172L415.4 125.169ZM418.862 137.876C419.77 137.478 420.244 136.333 420.069 134.963C419.617 131.414 416.512 127.612 414.66 126.05C413.04 124.686 411.34 125.045 410.373 125.766C409.46 126.449 408.653 127.842 409.383 129.519C409.832 130.548 411.431 132.381 412.842 133.994C413.329 134.552 413.809 135.1 414.237 135.612C415.63 137.269 417.077 138.129 418.245 138.031C418.462 138.013 418.668 137.961 418.864 137.876H418.862Z" fill="#31313C"/>
<path d="M410.814 129.772C414.123 131.026 419.602 134.503 421.732 138.762C423.863 143.022 420.443 147.005 413.765 143.061C410.726 141.267 406.409 139.062 404.985 137.53C401.523 133.802 405.39 127.718 410.814 129.775V129.772Z" fill="white"/>
<path d="M411.016 129.235C414.286 130.476 419.973 133.968 422.246 138.507C423.319 140.652 423.12 142.872 421.74 144.167C419.986 145.809 416.899 145.581 413.476 143.56C412.731 143.121 411.911 142.655 411.072 142.182C408.431 140.688 405.7 139.145 404.565 137.922C402.826 136.048 402.612 133.365 404.033 131.248C405.008 129.796 406.489 128.953 408.15 128.811C409.071 128.733 410.046 128.87 411.018 129.24L411.016 129.235ZM420.954 143.325C421.954 142.389 422.058 140.701 421.217 139.021C419.109 134.808 413.59 131.442 410.608 130.31C407.923 129.292 405.901 130.522 404.985 131.887C404.124 133.172 403.716 135.317 405.406 137.137C406.419 138.227 409.192 139.796 411.637 141.177C412.481 141.652 413.309 142.123 414.059 142.565C415.97 143.694 417.719 144.211 419.089 144.095C419.839 144.03 420.474 143.774 420.956 143.325H420.954Z" fill="#31313C"/>
<path d="M406.231 136.168C409.54 137.424 415.018 140.898 417.149 145.158C419.279 149.417 415.859 153.4 409.181 149.456C406.143 147.662 401.825 145.457 400.401 143.925C396.94 140.197 400.806 134.113 406.231 136.17V136.168Z" fill="white"/>
<path d="M406.434 135.63C409.702 136.871 415.392 140.363 417.662 144.902C418.735 147.047 418.537 149.267 417.157 150.562C415.403 152.204 412.313 151.976 408.893 149.955C408.147 149.516 407.327 149.05 406.491 148.577C403.85 147.083 401.118 145.54 399.984 144.317C398.245 142.443 398.031 139.763 399.452 137.643C400.427 136.191 401.908 135.346 403.569 135.206C404.49 135.128 405.465 135.265 406.437 135.635L406.434 135.63ZM416.373 149.72C417.373 148.784 417.477 147.096 416.636 145.419C414.528 141.205 409.009 137.84 406.027 136.708C403.337 135.689 401.317 136.92 400.401 138.284C399.54 139.569 399.132 141.715 400.822 143.534C401.836 144.625 404.608 146.194 407.054 147.574C407.897 148.05 408.725 148.518 409.475 148.962C411.387 150.092 413.136 150.609 414.505 150.493C415.256 150.428 415.89 150.172 416.373 149.722V149.72Z" fill="#31313C"/>
<path d="M401.253 142.8C404.046 143.86 408.671 146.793 410.471 150.389C412.272 153.984 409.383 157.347 403.747 154.018C401.183 152.503 397.536 150.642 396.334 149.347C393.412 146.199 396.677 141.063 401.255 142.8H401.253Z" fill="white"/>
<path d="M401.457 142.26C404.229 143.312 409.055 146.277 410.985 150.131C411.908 151.979 411.733 153.894 410.538 155.016C409.027 156.43 406.38 156.241 403.456 154.514C402.829 154.145 402.135 153.752 401.428 153.354C399.192 152.09 396.881 150.784 395.914 149.74C394.415 148.127 394.232 145.819 395.454 143.994C396.293 142.743 397.567 142.017 398.996 141.895C399.785 141.828 400.623 141.944 401.459 142.262L401.457 142.26ZM409.754 154.173C410.569 153.411 410.649 152.025 409.958 150.647C408.191 147.114 403.556 144.289 401.049 143.338C398.831 142.495 397.162 143.511 396.406 144.635C395.697 145.692 395.362 147.458 396.752 148.954C397.598 149.867 399.932 151.185 401.99 152.348C402.702 152.752 403.401 153.147 404.036 153.522C405.632 154.465 407.092 154.9 408.227 154.801C408.841 154.75 409.36 154.54 409.752 154.173H409.754Z" fill="#31313C"/>
<path d="M509.197 125.952C507.126 127.699 504.048 131.607 503.587 135.231C503.125 138.858 506.607 140.874 510.43 136.325C512.168 134.254 514.729 131.563 515.372 130.09C516.927 126.513 512.594 123.085 509.197 125.949V125.952Z" fill="white"/>
<path d="M512.305 124.321C513.091 124.388 513.857 124.675 514.541 125.187C516.161 126.399 516.708 128.464 515.9 130.323C515.382 131.517 513.79 133.337 512.253 135.097C511.771 135.65 511.296 136.193 510.873 136.697C508.877 139.075 506.646 140.039 504.907 139.272C503.522 138.664 502.782 137.049 503.022 135.159C503.517 131.259 506.767 127.252 508.83 125.51C509.885 124.618 511.118 124.218 512.307 124.318L512.305 124.321ZM505.983 138.375C507.151 138.475 508.598 137.612 509.991 135.955C510.419 135.443 510.899 134.896 511.386 134.337C512.797 132.722 514.397 130.892 514.845 129.863C515.575 128.185 514.768 126.792 513.855 126.11C512.89 125.389 511.188 125.027 509.568 126.394C507.716 127.955 504.608 131.758 504.159 135.306C503.986 136.679 504.458 137.822 505.366 138.22C505.562 138.305 505.769 138.357 505.985 138.375H505.983Z" fill="#31313C"/>
<path d="M513.414 130.116C510.105 131.372 504.626 134.846 502.496 139.106C500.365 143.366 503.785 147.349 510.463 143.405C513.502 141.611 517.819 139.406 519.243 137.873C522.705 134.146 518.838 128.061 513.414 130.119V130.116Z" fill="white"/>
<path d="M516.081 129.15C517.742 129.292 519.222 130.134 520.197 131.587C521.619 133.707 521.405 136.39 519.666 138.261C518.531 139.484 515.8 141.027 513.159 142.521C512.32 142.994 511.5 143.459 510.755 143.899C507.332 145.92 504.242 146.147 502.49 144.506C501.111 143.214 500.909 140.991 501.985 138.845C504.255 134.306 509.945 130.814 513.215 129.574C514.188 129.204 515.163 129.067 516.083 129.144L516.081 129.15ZM505.142 144.439C506.509 144.555 508.26 144.038 510.172 142.909C510.922 142.467 511.75 141.996 512.594 141.521C515.039 140.138 517.812 138.571 518.825 137.48C520.512 135.663 520.107 133.515 519.246 132.231C518.33 130.866 516.308 129.636 513.623 130.654C510.641 131.786 505.121 135.152 503.014 139.365C502.173 141.042 502.279 142.73 503.277 143.669C503.759 144.121 504.394 144.374 505.145 144.439H505.142Z" fill="#31313C"/>
<path d="M517.995 136.511C514.685 137.767 509.207 141.241 507.076 145.501C504.946 149.761 508.366 153.744 515.044 149.799C518.082 148.005 522.4 145.801 523.824 144.268C527.285 140.541 523.419 134.456 517.995 136.513V136.511Z" fill="white"/>
<path d="M520.662 135.544C522.323 135.686 523.803 136.532 524.778 137.982C526.2 140.101 525.985 142.784 524.247 144.656C523.112 145.878 520.381 147.421 517.739 148.915C516.901 149.388 516.081 149.854 515.338 150.293C511.915 152.314 508.825 152.542 507.074 150.901C505.694 149.608 505.493 147.385 506.568 145.24C508.838 140.701 514.528 137.209 517.796 135.968C518.769 135.598 519.744 135.461 520.664 135.542L520.662 135.544ZM509.723 150.833C511.09 150.95 512.841 150.433 514.753 149.303C515.503 148.859 516.331 148.391 517.175 147.915C519.62 146.532 522.393 144.966 523.406 143.875C525.096 142.058 524.688 139.913 523.827 138.625C522.911 137.261 520.891 136.03 518.201 137.049C515.219 138.181 509.7 141.546 507.592 145.759C506.752 147.437 506.857 149.125 507.855 150.061C508.338 150.513 508.972 150.769 509.723 150.831V150.833Z" fill="#31313C"/>
<path d="M522.975 143.141C520.182 144.201 515.557 147.135 513.757 150.73C511.956 154.326 514.845 157.689 520.481 154.359C523.045 152.845 526.692 150.984 527.894 149.689C530.816 146.54 527.551 141.404 522.973 143.141H522.975Z" fill="white"/>
<path d="M525.235 142.236C526.661 142.358 527.938 143.084 528.776 144.335C529.999 146.16 529.816 148.468 528.317 150.081C527.35 151.123 525.039 152.431 522.803 153.695C522.096 154.093 521.405 154.486 520.775 154.855C517.85 156.585 515.204 156.771 513.692 155.357C512.496 154.238 512.32 152.32 513.246 150.471C515.173 146.618 520.001 143.653 522.774 142.601C523.61 142.283 524.446 142.166 525.237 142.234L525.235 142.236ZM516.001 155.145C517.136 155.24 518.593 154.809 520.192 153.865C520.827 153.491 521.526 153.095 522.238 152.692C524.296 151.529 526.63 150.208 527.476 149.298C528.867 147.801 528.531 146.036 527.822 144.979C527.069 143.854 525.4 142.839 523.179 143.681C520.672 144.632 516.04 147.458 514.27 150.991C513.579 152.371 513.659 153.754 514.474 154.517C514.866 154.884 515.384 155.093 515.998 155.145H516.001Z" fill="#31313C"/>
<path d="M338.472 209.654L338.015 209.625L78.2451 194.153L118.088 81.1986C125.034 61.5075 134.19 39.2807 149.437 23.7433C164.727 8.15945 184.724 0.585938 210.569 0.585938H465.062C494.025 0.585938 516.728 9.04604 534.469 26.4522C549.006 40.7152 560.466 61.3188 570.538 91.2975L605.098 194.178L338.472 209.654ZM99.852 179.786L338.482 194L583.801 179.76L555.758 96.281C546.504 68.7295 536.272 50.0878 523.561 37.6186C516.38 30.5724 508.402 25.4286 499.179 21.8926C489.21 18.0696 478.049 16.2137 465.062 16.2137H210.569C166.001 16.2137 148.849 40.8832 132.792 86.407L99.8546 179.784L99.852 179.786Z" fill="#294A54"/>
<path d="M84.0385 178.253C84.0385 178.253 59.7981 201.698 44.2062 232.168C41.2477 237.95 45.4391 244.82 51.9209 244.82C51.9209 244.82 183.407 264.721 342.795 264.995C563.659 265.375 629.95 244.82 629.95 244.82C639.277 244.82 645.261 234.874 640.894 226.613C631.98 209.744 616.151 186.114 594.448 178.253L339.372 184.072L84.0359 178.253H84.0385Z" fill="#294A54"/>
<path d="M100.33 178.625C100.33 178.625 99.8523 183.746 111.268 187.429C139.102 196.409 279.357 201.809 338.477 201.829C397.933 201.85 496.93 199.488 570.721 187.864C580.541 186.318 583.652 178.256 583.652 178.256C583.652 178.256 395.777 182.125 333.538 182.125C274.704 182.125 100.33 178.628 100.33 178.628V178.625Z" fill="#555561"/>
</svg>
