<svg width="41" height="41" viewBox="0 0 41 41" fill="none" xmlns="http://www.w3.org/2000/svg">
<path d="M18.7913 23.9167H22.208V18.7917H27.333V15.3751H22.208V10.2501H18.7913V15.3751H13.6663V18.7917H18.7913V23.9167ZM20.4997 37.5834C15.9156 33.6827 12.4921 30.0599 10.2292 26.715C7.9662 23.3701 6.83415 20.2734 6.83301 17.4251C6.83301 13.1542 8.20708 9.75182 10.9552 7.21779C13.7034 4.68376 16.8848 3.41675 20.4997 3.41675C24.1156 3.41675 27.2977 4.68376 30.0458 7.21779C32.794 9.75182 34.1675 13.1542 34.1663 17.4251C34.1663 20.2723 33.0343 23.3689 30.7702 26.715C28.5061 30.0611 25.0826 33.6839 20.4997 37.5834Z" fill="#294A54"/>
</svg>
