<svg width="93" height="21" viewBox="0 0 93 21" fill="none" xmlns="http://www.w3.org/2000/svg">
<path fill-rule="evenodd" clip-rule="evenodd" d="M6.6325 3.5C6.32404 3.5001 6.02108 3.58173 5.75433 3.73662C5.48757 3.89151 5.2665 4.11416 5.1135 4.382L1.981 9.86388C1.82965 10.1284 1.75002 10.428 1.75 10.7327V14.6685C1.75002 14.94 1.81323 15.2079 1.93462 15.4508L2.91287 17.4072C3.05818 17.698 3.28159 17.9426 3.55808 18.1135C3.83456 18.2844 4.15319 18.375 4.47825 18.375H5.25C5.71413 18.375 6.15925 18.1906 6.48744 17.8624C6.81563 17.5342 7 17.0891 7 16.625H14C14 17.0891 14.1844 17.5342 14.5126 17.8624C14.8408 18.1906 15.2859 18.375 15.75 18.375H16.5217C16.8468 18.375 17.1654 18.2844 17.4419 18.1135C17.7184 17.9426 17.9418 17.698 18.0871 17.4072L19.0654 15.4508C19.187 15.2084 19.25 14.9398 19.25 14.6685V10.7327C19.25 10.428 19.1704 10.1284 19.019 9.86388L15.8865 4.382C15.7335 4.11416 15.5124 3.89151 15.2457 3.73662C14.9789 3.58173 14.676 3.5001 14.3675 3.5H6.6325ZM10.5 10.5C9.10263 10.5 7.812 10.1999 6.51613 9.71688C6.30843 9.61314 6.06803 9.59617 5.84781 9.66968C5.6276 9.74319 5.44561 9.90118 5.34188 10.1089C5.23814 10.3166 5.22117 10.557 5.29468 10.7772C5.36819 10.9974 5.52618 11.1794 5.73387 11.2831C6.16612 11.4975 8.365 12.25 10.5 12.25C12.1222 12.25 13.797 12.0103 15.2644 11.284C15.471 11.1789 15.6281 10.9968 15.7018 10.777C15.7754 10.5572 15.7597 10.3172 15.6581 10.1089C15.6068 10.006 15.5357 9.91425 15.4489 9.83886C15.3621 9.76348 15.2613 9.70594 15.1522 9.66954C15.0432 9.63313 14.928 9.61857 14.8133 9.6267C14.6987 9.63482 14.5867 9.66546 14.4839 9.71688C13.2895 10.3136 11.809 10.5 10.5 10.5Z" fill="#294A54"/>
<path d="M27.42 14.468V12.596H31.47V9.626H27.42V8.132H32.028V5H24V17.6H32.298V14.468H27.42Z" fill="#294A54"/>
<path d="M44.8242 12.362V5H41.1702V12.272C41.1702 13.442 40.7022 14.396 39.2802 14.396C37.8582 14.396 37.3902 13.442 37.3902 12.272V5H33.7362V12.362C33.7362 15.674 35.4102 17.816 39.2802 17.816C43.1502 17.816 44.8242 15.674 44.8242 12.362Z" fill="#294A54"/>
<path d="M50.9275 17.285C53.4165 17.285 55.3355 15.499 55.3355 12.611C55.3355 9.72304 53.4165 7.93704 50.9275 7.93704C49.1985 7.93704 47.9635 8.77304 47.2985 10.008H47.2605V3.70004H46.3105V17H47.2605V15.214H47.2985C47.9635 16.449 49.1985 17.285 50.9275 17.285ZM50.7565 16.335C48.6095 16.335 47.2035 14.777 47.2035 12.611C47.2035 10.445 48.6095 8.88704 50.7565 8.88704C52.9225 8.88704 54.3095 10.445 54.3095 12.611C54.3095 14.777 52.9225 16.335 50.7565 16.335Z" fill="#454545"/>
<path d="M62.8545 8.22204L59.7765 14.948L56.7935 8.22204H55.6725L59.2825 15.993L56.9455 20.8H57.9905L63.9375 8.22204H62.8545Z" fill="#454545"/>
<path d="M71.9389 17.285C73.8579 17.285 75.2259 16.734 76.5369 15.765L75.8909 14.872C74.8269 15.651 73.6489 16.24 71.9199 16.24C68.3669 16.24 65.9729 13.808 65.9729 10.35C65.9729 6.89204 68.3669 4.46004 71.9199 4.46004C73.6489 4.46004 74.8269 5.04904 75.8909 5.82804L76.5369 4.93504C75.2259 3.96604 73.8579 3.41504 71.9389 3.41504C67.6449 3.41504 64.8519 6.24604 64.8519 10.35C64.8519 14.454 67.6449 17.285 71.9389 17.285Z" fill="#454545"/>
<path d="M81.5223 17.285C83.2513 17.285 84.4863 16.449 85.1323 15.214H85.1703V17H86.1393V8.22204H85.1703V10.008H85.1323C84.4863 8.77304 83.2513 7.93704 81.5223 7.93704C79.0333 7.93704 77.1143 9.72304 77.1143 12.611C77.1143 15.499 79.0333 17.285 81.5223 17.285ZM81.6743 16.335C79.5273 16.335 78.1213 14.777 78.1213 12.611C78.1213 10.445 79.5273 8.88704 81.6743 8.88704C83.8403 8.88704 85.2463 10.445 85.2463 12.611C85.2463 14.777 83.8403 16.335 81.6743 16.335Z" fill="#454545"/>
<path d="M92.8509 7.95604H92.5469C91.0459 7.95604 89.9439 8.92504 89.6399 10.236H89.6019V8.22204H88.6519V17H89.6019V12.687C89.6019 10.464 90.7229 9.05804 92.5849 9.05804H92.8509V7.95604Z" fill="#454545"/>
<path fill-rule="evenodd" clip-rule="evenodd" d="M6.6325 3.5C6.32404 3.5001 6.02108 3.58173 5.75433 3.73662C5.48757 3.89151 5.2665 4.11416 5.1135 4.382L1.981 9.86388C1.82965 10.1284 1.75002 10.428 1.75 10.7327V14.6685C1.75002 14.94 1.81323 15.2079 1.93462 15.4508L2.91287 17.4072C3.05818 17.698 3.28159 17.9426 3.55808 18.1135C3.83456 18.2844 4.15319 18.375 4.47825 18.375H5.25C5.71413 18.375 6.15925 18.1906 6.48744 17.8624C6.81563 17.5342 7 17.0891 7 16.625H14C14 17.0891 14.1844 17.5342 14.5126 17.8624C14.8408 18.1906 15.2859 18.375 15.75 18.375H16.5217C16.8468 18.375 17.1654 18.2844 17.4419 18.1135C17.7184 17.9426 17.9418 17.698 18.0871 17.4072L19.0654 15.4508C19.187 15.2084 19.25 14.9398 19.25 14.6685V10.7327C19.25 10.428 19.1704 10.1284 19.019 9.86388L15.8865 4.382C15.7335 4.11416 15.5124 3.89151 15.2457 3.73662C14.9789 3.58173 14.676 3.5001 14.3675 3.5H6.6325ZM10.5 10.5C9.10263 10.5 7.812 10.1999 6.51613 9.71688C6.30843 9.61314 6.06803 9.59617 5.84781 9.66968C5.6276 9.74319 5.44561 9.90118 5.34188 10.1089C5.23814 10.3166 5.22117 10.557 5.29468 10.7772C5.36819 10.9974 5.52618 11.1794 5.73387 11.2831C6.16612 11.4975 8.365 12.25 10.5 12.25C12.1222 12.25 13.797 12.0103 15.2644 11.284C15.471 11.1789 15.6281 10.9968 15.7018 10.777C15.7754 10.5572 15.7597 10.3172 15.6581 10.1089C15.6068 10.006 15.5357 9.91425 15.4489 9.83886C15.3621 9.76348 15.2613 9.70594 15.1522 9.66954C15.0432 9.63313 14.928 9.61857 14.8133 9.6267C14.6987 9.63482 14.5867 9.66546 14.4839 9.71688C13.2895 10.3136 11.809 10.5 10.5 10.5Z" fill="#294A54"/>
<path d="M27.42 14.468V12.596H31.47V9.626H27.42V8.132H32.028V5H24V17.6H32.298V14.468H27.42Z" fill="#294A54"/>
<path d="M44.8242 12.362V5H41.1702V12.272C41.1702 13.442 40.7022 14.396 39.2802 14.396C37.8582 14.396 37.3902 13.442 37.3902 12.272V5H33.7362V12.362C33.7362 15.674 35.4102 17.816 39.2802 17.816C43.1502 17.816 44.8242 15.674 44.8242 12.362Z" fill="#294A54"/>
<path d="M50.9275 17.285C53.4165 17.285 55.3355 15.499 55.3355 12.611C55.3355 9.72304 53.4165 7.93704 50.9275 7.93704C49.1985 7.93704 47.9635 8.77304 47.2985 10.008H47.2605V3.70004H46.3105V17H47.2605V15.214H47.2985C47.9635 16.449 49.1985 17.285 50.9275 17.285ZM50.7565 16.335C48.6095 16.335 47.2035 14.777 47.2035 12.611C47.2035 10.445 48.6095 8.88704 50.7565 8.88704C52.9225 8.88704 54.3095 10.445 54.3095 12.611C54.3095 14.777 52.9225 16.335 50.7565 16.335Z" fill="#454545"/>
<path d="M62.8545 8.22204L59.7765 14.948L56.7935 8.22204H55.6725L59.2825 15.993L56.9455 20.8H57.9905L63.9375 8.22204H62.8545Z" fill="#454545"/>
<path d="M71.9389 17.285C73.8579 17.285 75.2259 16.734 76.5369 15.765L75.8909 14.872C74.8269 15.651 73.6489 16.24 71.9199 16.24C68.3669 16.24 65.9729 13.808 65.9729 10.35C65.9729 6.89204 68.3669 4.46004 71.9199 4.46004C73.6489 4.46004 74.8269 5.04904 75.8909 5.82804L76.5369 4.93504C75.2259 3.96604 73.8579 3.41504 71.9389 3.41504C67.6449 3.41504 64.8519 6.24604 64.8519 10.35C64.8519 14.454 67.6449 17.285 71.9389 17.285Z" fill="#454545"/>
<path d="M81.5223 17.285C83.2513 17.285 84.4863 16.449 85.1323 15.214H85.1703V17H86.1393V8.22204H85.1703V10.008H85.1323C84.4863 8.77304 83.2513 7.93704 81.5223 7.93704C79.0333 7.93704 77.1143 9.72304 77.1143 12.611C77.1143 15.499 79.0333 17.285 81.5223 17.285ZM81.6743 16.335C79.5273 16.335 78.1213 14.777 78.1213 12.611C78.1213 10.445 79.5273 8.88704 81.6743 8.88704C83.8403 8.88704 85.2463 10.445 85.2463 12.611C85.2463 14.777 83.8403 16.335 81.6743 16.335Z" fill="#454545"/>
<path d="M92.8509 7.95604H92.5469C91.0459 7.95604 89.9439 8.92504 89.6399 10.236H89.6019V8.22204H88.6519V17H89.6019V12.687C89.6019 10.464 90.7229 9.05804 92.5849 9.05804H92.8509V7.95604Z" fill="#454545"/>
<path fill-rule="evenodd" clip-rule="evenodd" d="M6.6325 3.5C6.32404 3.5001 6.02108 3.58173 5.75433 3.73662C5.48757 3.89151 5.2665 4.11416 5.1135 4.382L1.981 9.86388C1.82965 10.1284 1.75002 10.428 1.75 10.7327V14.6685C1.75002 14.94 1.81323 15.2079 1.93462 15.4508L2.91287 17.4072C3.05818 17.698 3.28159 17.9426 3.55808 18.1135C3.83456 18.2844 4.15319 18.375 4.47825 18.375H5.25C5.71413 18.375 6.15925 18.1906 6.48744 17.8624C6.81563 17.5342 7 17.0891 7 16.625H14C14 17.0891 14.1844 17.5342 14.5126 17.8624C14.8408 18.1906 15.2859 18.375 15.75 18.375H16.5217C16.8468 18.375 17.1654 18.2844 17.4419 18.1135C17.7184 17.9426 17.9418 17.698 18.0871 17.4072L19.0654 15.4508C19.187 15.2084 19.25 14.9398 19.25 14.6685V10.7327C19.25 10.428 19.1704 10.1284 19.019 9.86388L15.8865 4.382C15.7335 4.11416 15.5124 3.89151 15.2457 3.73662C14.9789 3.58173 14.676 3.5001 14.3675 3.5H6.6325ZM10.5 10.5C9.10263 10.5 7.812 10.1999 6.51613 9.71688C6.30843 9.61314 6.06803 9.59617 5.84781 9.66968C5.6276 9.74319 5.44561 9.90118 5.34188 10.1089C5.23814 10.3166 5.22117 10.557 5.29468 10.7772C5.36819 10.9974 5.52618 11.1794 5.73387 11.2831C6.16612 11.4975 8.365 12.25 10.5 12.25C12.1222 12.25 13.797 12.0103 15.2644 11.284C15.471 11.1789 15.6281 10.9968 15.7018 10.777C15.7754 10.5572 15.7597 10.3172 15.6581 10.1089C15.6068 10.006 15.5357 9.91425 15.4489 9.83886C15.3621 9.76348 15.2613 9.70594 15.1522 9.66954C15.0432 9.63313 14.928 9.61857 14.8133 9.6267C14.6987 9.63482 14.5867 9.66546 14.4839 9.71688C13.2895 10.3136 11.809 10.5 10.5 10.5Z" fill="#294A54"/>
<path d="M27.42 14.468V12.596H31.47V9.626H27.42V8.132H32.028V5H24V17.6H32.298V14.468H27.42Z" fill="#294A54"/>
<path d="M44.8242 12.362V5H41.1702V12.272C41.1702 13.442 40.7022 14.396 39.2802 14.396C37.8582 14.396 37.3902 13.442 37.3902 12.272V5H33.7362V12.362C33.7362 15.674 35.4102 17.816 39.2802 17.816C43.1502 17.816 44.8242 15.674 44.8242 12.362Z" fill="#294A54"/>
<path d="M50.9275 17.285C53.4165 17.285 55.3355 15.499 55.3355 12.611C55.3355 9.72304 53.4165 7.93704 50.9275 7.93704C49.1985 7.93704 47.9635 8.77304 47.2985 10.008H47.2605V3.70004H46.3105V17H47.2605V15.214H47.2985C47.9635 16.449 49.1985 17.285 50.9275 17.285ZM50.7565 16.335C48.6095 16.335 47.2035 14.777 47.2035 12.611C47.2035 10.445 48.6095 8.88704 50.7565 8.88704C52.9225 8.88704 54.3095 10.445 54.3095 12.611C54.3095 14.777 52.9225 16.335 50.7565 16.335Z" fill="#454545"/>
<path d="M62.8545 8.22204L59.7765 14.948L56.7935 8.22204H55.6725L59.2825 15.993L56.9455 20.8H57.9905L63.9375 8.22204H62.8545Z" fill="#454545"/>
<path d="M71.9389 17.285C73.8579 17.285 75.2259 16.734 76.5369 15.765L75.8909 14.872C74.8269 15.651 73.6489 16.24 71.9199 16.24C68.3669 16.24 65.9729 13.808 65.9729 10.35C65.9729 6.89204 68.3669 4.46004 71.9199 4.46004C73.6489 4.46004 74.8269 5.04904 75.8909 5.82804L76.5369 4.93504C75.2259 3.96604 73.8579 3.41504 71.9389 3.41504C67.6449 3.41504 64.8519 6.24604 64.8519 10.35C64.8519 14.454 67.6449 17.285 71.9389 17.285Z" fill="#454545"/>
<path d="M81.5223 17.285C83.2513 17.285 84.4863 16.449 85.1323 15.214H85.1703V17H86.1393V8.22204H85.1703V10.008H85.1323C84.4863 8.77304 83.2513 7.93704 81.5223 7.93704C79.0333 7.93704 77.1143 9.72304 77.1143 12.611C77.1143 15.499 79.0333 17.285 81.5223 17.285ZM81.6743 16.335C79.5273 16.335 78.1213 14.777 78.1213 12.611C78.1213 10.445 79.5273 8.88704 81.6743 8.88704C83.8403 8.88704 85.2463 10.445 85.2463 12.611C85.2463 14.777 83.8403 16.335 81.6743 16.335Z" fill="#454545"/>
<path d="M92.8509 7.95604H92.5469C91.0459 7.95604 89.9439 8.92504 89.6399 10.236H89.6019V8.22204H88.6519V17H89.6019V12.687C89.6019 10.464 90.7229 9.05804 92.5849 9.05804H92.8509V7.95604Z" fill="#454545"/>
<path fill-rule="evenodd" clip-rule="evenodd" d="M6.6325 3.5C6.32404 3.5001 6.02108 3.58173 5.75433 3.73662C5.48757 3.89151 5.2665 4.11416 5.1135 4.382L1.981 9.86388C1.82965 10.1284 1.75002 10.428 1.75 10.7327V14.6685C1.75002 14.94 1.81323 15.2079 1.93462 15.4508L2.91287 17.4072C3.05818 17.698 3.28159 17.9426 3.55808 18.1135C3.83456 18.2844 4.15319 18.375 4.47825 18.375H5.25C5.71413 18.375 6.15925 18.1906 6.48744 17.8624C6.81563 17.5342 7 17.0891 7 16.625H14C14 17.0891 14.1844 17.5342 14.5126 17.8624C14.8408 18.1906 15.2859 18.375 15.75 18.375H16.5217C16.8468 18.375 17.1654 18.2844 17.4419 18.1135C17.7184 17.9426 17.9418 17.698 18.0871 17.4072L19.0654 15.4508C19.187 15.2084 19.25 14.9398 19.25 14.6685V10.7327C19.25 10.428 19.1704 10.1284 19.019 9.86388L15.8865 4.382C15.7335 4.11416 15.5124 3.89151 15.2457 3.73662C14.9789 3.58173 14.676 3.5001 14.3675 3.5H6.6325ZM10.5 10.5C9.10263 10.5 7.812 10.1999 6.51613 9.71688C6.30843 9.61314 6.06803 9.59617 5.84781 9.66968C5.6276 9.74319 5.44561 9.90118 5.34188 10.1089C5.23814 10.3166 5.22117 10.557 5.29468 10.7772C5.36819 10.9974 5.52618 11.1794 5.73387 11.2831C6.16612 11.4975 8.365 12.25 10.5 12.25C12.1222 12.25 13.797 12.0103 15.2644 11.284C15.471 11.1789 15.6281 10.9968 15.7018 10.777C15.7754 10.5572 15.7597 10.3172 15.6581 10.1089C15.6068 10.006 15.5357 9.91425 15.4489 9.83886C15.3621 9.76348 15.2613 9.70594 15.1522 9.66954C15.0432 9.63313 14.928 9.61857 14.8133 9.6267C14.6987 9.63482 14.5867 9.66546 14.4839 9.71688C13.2895 10.3136 11.809 10.5 10.5 10.5Z" fill="white"/>
<path d="M27.42 14.468V12.596H31.47V9.626H27.42V8.132H32.028V5H24V17.6H32.298V14.468H27.42Z" fill="white"/>
<path d="M44.8242 12.362V5H41.1702V12.272C41.1702 13.442 40.7022 14.396 39.2802 14.396C37.8582 14.396 37.3902 13.442 37.3902 12.272V5H33.7362V12.362C33.7362 15.674 35.4102 17.816 39.2802 17.816C43.1502 17.816 44.8242 15.674 44.8242 12.362Z" fill="white"/>
<path d="M50.9275 17.285C53.4165 17.285 55.3355 15.499 55.3355 12.611C55.3355 9.72304 53.4165 7.93704 50.9275 7.93704C49.1985 7.93704 47.9635 8.77304 47.2985 10.008H47.2605V3.70004H46.3105V17H47.2605V15.214H47.2985C47.9635 16.449 49.1985 17.285 50.9275 17.285ZM50.7565 16.335C48.6095 16.335 47.2035 14.777 47.2035 12.611C47.2035 10.445 48.6095 8.88704 50.7565 8.88704C52.9225 8.88704 54.3095 10.445 54.3095 12.611C54.3095 14.777 52.9225 16.335 50.7565 16.335Z" fill="white"/>
<path d="M62.8545 8.22204L59.7765 14.948L56.7935 8.22204H55.6725L59.2825 15.993L56.9455 20.8H57.9905L63.9375 8.22204H62.8545Z" fill="white"/>
<path d="M71.9389 17.285C73.8579 17.285 75.2259 16.734 76.5369 15.765L75.8909 14.872C74.8269 15.651 73.6489 16.24 71.9199 16.24C68.3669 16.24 65.9729 13.808 65.9729 10.35C65.9729 6.89204 68.3669 4.46004 71.9199 4.46004C73.6489 4.46004 74.8269 5.04904 75.8909 5.82804L76.5369 4.93504C75.2259 3.96604 73.8579 3.41504 71.9389 3.41504C67.6449 3.41504 64.8519 6.24604 64.8519 10.35C64.8519 14.454 67.6449 17.285 71.9389 17.285Z" fill="white"/>
<path d="M81.5223 17.285C83.2513 17.285 84.4863 16.449 85.1323 15.214H85.1703V17H86.1393V8.22204H85.1703V10.008H85.1323C84.4863 8.77304 83.2513 7.93704 81.5223 7.93704C79.0333 7.93704 77.1143 9.72304 77.1143 12.611C77.1143 15.499 79.0333 17.285 81.5223 17.285ZM81.6743 16.335C79.5273 16.335 78.1213 14.777 78.1213 12.611C78.1213 10.445 79.5273 8.88704 81.6743 8.88704C83.8403 8.88704 85.2463 10.445 85.2463 12.611C85.2463 14.777 83.8403 16.335 81.6743 16.335Z" fill="white"/>
<path d="M92.8509 7.95604H92.5469C91.0459 7.95604 89.9439 8.92504 89.6399 10.236H89.6019V8.22204H88.6519V17H89.6019V12.687C89.6019 10.464 90.7229 9.05804 92.5849 9.05804H92.8509V7.95604Z" fill="white"/>
</svg>
