<svg width="31" height="26" viewBox="0 0 31 26" fill="none" xmlns="http://www.w3.org/2000/svg">
<path fill-rule="evenodd" clip-rule="evenodd" d="M8.41852 0.0256348C7.88747 0.0258061 7.36589 0.166342 6.90664 0.433004C6.44739 0.699666 6.06678 1.08298 5.80338 1.54411L0.41039 10.9818C0.149818 11.4373 0.012729 11.953 0.0126953 12.4777V19.2536C0.0127271 19.7211 0.121548 20.1822 0.33055 20.6003L2.01473 23.9687C2.26488 24.4693 2.64952 24.8903 3.12552 25.1846C3.60153 25.4789 4.15009 25.6348 4.70971 25.6348H6.03838C6.83743 25.6348 7.60376 25.3174 8.16878 24.7523C8.7338 24.1873 9.05122 23.421 9.05122 22.6219H21.1026C21.1026 23.421 21.42 24.1873 21.985 24.7523C22.55 25.3174 23.3164 25.6348 24.1154 25.6348H25.4441C26.0037 25.6348 26.5523 25.4789 27.0283 25.1846C27.5043 24.8903 27.8889 24.4693 28.1391 23.9687L29.8233 20.6003C30.0326 20.1831 30.1411 19.7206 30.1411 19.2536V12.4777C30.1411 11.953 30.004 11.4373 29.7434 10.9818L24.3504 1.54411C24.087 1.08298 23.7064 0.699666 23.2472 0.433004C22.7879 0.166342 22.2663 0.0258061 21.7353 0.0256348H8.41852ZM15.0769 12.077C12.6711 12.077 10.4492 11.5603 8.21817 10.7288C7.86059 10.5502 7.44672 10.5209 7.06759 10.6475C6.68846 10.7741 6.37514 11.0461 6.19655 11.4036C6.01796 11.7612 5.98874 12.1751 6.1153 12.5542C6.24186 12.9333 6.51385 13.2467 6.87143 13.4252C7.6156 13.7943 11.4012 15.0898 15.0769 15.0898C17.8698 15.0898 20.7531 14.6771 23.2794 13.4268C23.6351 13.2458 23.9056 12.9324 24.0324 12.5539C24.1592 12.1755 24.1322 11.7624 23.9573 11.4036C23.8689 11.2265 23.7465 11.0686 23.597 10.9388C23.4476 10.809 23.274 10.7099 23.0863 10.6473C22.8986 10.5846 22.7003 10.5595 22.5029 10.5735C22.3054 10.5875 22.1127 10.6402 21.9356 10.7288C19.8794 11.7561 17.3305 12.077 15.0769 12.077Z" fill="#294A54"/>
</svg>
