<svg viewBox="0 0 43 32" fill="none" xmlns="http://www.w3.org/2000/svg">
<path d="M31.5333 9.01273V8C31.5333 3.44 24.7555 0 15.7667 0C6.77788 0 0 3.44 0 8V15.2727C0 19.0709 4.70312 22.0891 11.4667 22.9927V24C11.4667 28.56 18.2445 32 27.2333 32C36.2221 32 43 28.56 43 24V16.7273C43 12.9636 38.4456 9.94182 31.5333 9.01273ZM40.1333 16.7273C40.1333 19.1309 34.6168 21.8182 27.2333 21.8182C26.565 21.8182 25.9021 21.7945 25.2482 21.7509C29.1128 20.3218 31.5333 18 31.5333 15.2727V11.9527C36.885 12.7618 40.1333 14.9582 40.1333 16.7273ZM11.4667 20.0455V15.72C12.8924 15.9085 14.3288 16.0021 15.7667 16C17.2045 16.0021 18.6409 15.9085 20.0667 15.72V20.0455C18.643 20.2589 17.2058 20.3652 15.7667 20.3636C14.3276 20.3652 12.8903 20.2589 11.4667 20.0455ZM28.6667 12.7145V15.2727C28.6667 16.7982 26.4432 18.4364 22.9333 19.4309V15.1818C25.2464 14.6127 27.2047 13.7655 28.6667 12.7145ZM15.7667 2.90909C23.1501 2.90909 28.6667 5.59636 28.6667 8C28.6667 10.4036 23.1501 13.0909 15.7667 13.0909C8.38321 13.0909 2.86667 10.4036 2.86667 8C2.86667 5.59636 8.38321 2.90909 15.7667 2.90909ZM2.86667 15.2727V12.7145C4.32867 13.7655 6.28696 14.6127 8.6 15.1818V19.4309C5.09012 18.4364 2.86667 16.7982 2.86667 15.2727ZM14.3333 24V23.2418C14.8045 23.26 15.2811 23.2727 15.7667 23.2727C16.4618 23.2727 17.1409 23.2491 17.8074 23.2091C18.5478 23.4781 19.302 23.7063 20.0667 23.8927V28.1582C16.5568 27.1636 14.3333 25.5255 14.3333 24ZM22.9333 28.7727V24.4364C24.3586 24.6308 25.7952 24.728 27.2333 24.7273C28.6712 24.7293 30.1076 24.6358 31.5333 24.4473V28.7727C28.6819 29.197 25.7848 29.197 22.9333 28.7727ZM34.4 28.1582V23.9091C36.713 23.34 38.6713 22.4927 40.1333 21.4418V24C40.1333 25.5255 37.9099 27.1636 34.4 28.1582Z" fill="#294A54"/>
</svg>
