<svg viewBox="0 0 43 40" fill="none" xmlns="http://www.w3.org/2000/svg">
<path d="M43 20.2667C43 17.4667 40.7087 16 37.6087 16H28.5783C29.2522 13.6 29.5217 11.3333 29.5217 9.33333C29.5217 1.6 27.3652 0 25.4783 0C24.2652 0 23.3217 0.133334 22.1087 0.800001C21.7043 1.06667 21.5696 1.33333 21.4348 1.73333L20.087 8.93333C18.6043 12.6667 14.9652 16 12 18.2667V37.3333C13.0783 37.3333 14.1565 37.8667 15.5043 38.5333C16.987 39.2 18.4696 40 20.087 40H32.8913C35.587 40 37.6087 37.8667 37.6087 36C37.6087 35.6 37.6087 35.3333 37.4739 35.0667C39.0913 34.4 40.3043 33.0667 40.3043 31.3333C40.3043 30.5333 40.1696 29.8667 39.9 29.2C40.9783 28.5333 41.9217 27.3333 41.9217 26C41.9217 25.2 41.5174 24.4 41.113 23.7333C42.1913 22.9333 43 21.6 43 20.2667ZM40.1696 20.2667C40.1696 22 38.4174 22.1333 38.1478 22.9333C37.8783 23.8667 39.2261 24.1333 39.2261 25.7333C39.2261 27.3333 37.2043 27.3333 36.9348 28.2667C36.6652 29.3333 37.6087 29.6 37.6087 31.2V31.4667C37.3391 32.8 35.3174 32.9333 34.913 33.4667C34.5087 34.1333 34.913 34.4 34.913 35.8667C34.913 36.6667 33.9696 37.2 32.8913 37.2H20.087C19.0087 37.2 17.9304 36.6667 16.5826 36C15.5043 35.4667 14.4261 34.9333 13.3478 34.6667V20.6667C16.7174 18.1333 21.0304 14.4 22.6478 9.73333V9.46667L23.8609 2.8C24.4 2.66667 24.8043 2.66667 25.4783 2.66667C25.7478 2.66667 26.8261 4.26667 26.8261 9.33333C26.8261 11.3333 26.4217 13.4667 25.7478 16H25.4783C24.6696 16 24.1304 16.5333 24.1304 17.3333C24.1304 18.1333 24.6696 18.6667 25.4783 18.6667H37.6087C38.9565 18.6667 40.1696 19.3333 40.1696 20.2667Z" fill="#294A54"/>
<path d="M10.4 40H2.6C1.17 40 0 38.8 0 37.3333V18.6667C0 17.2 1.17 16 2.6 16H10.4C11.83 16 13 17.2 13 18.6667V37.3333C13 38.8 11.83 40 10.4 40ZM2.6 18.6667V37.3333H10.4V18.6667H2.6Z" fill="#294A54"/>
</svg>
