<?xml version="1.0" encoding="iso-8859-1"?>
<!-- Uploaded to: SVG Repo, www.svgrepo.com, Generator: SVG Repo Mixer Tools -->
<svg height="800px" width="800px" version="1.1" id="Layer_1" xmlns="http://www.w3.org/2000/svg" xmlns:xlink="http://www.w3.org/1999/xlink" 
	 viewBox="0 0 503.48 503.48" xml:space="preserve">
<g>
	<path style="fill:#DBB38D;" d="M304.934,459.751c-16.775,11.377-31.562,26.372-53.3,26.372s-36.526-14.996-53.3-26.372
		c-8.175-5.545-16.479-10.96-24.567-16.662v60.39H329.97v-60.711C321.743,448.6,313.265,454.102,304.934,459.751"/>
	<path style="fill:#FDD7AD;" d="M399.633,191.074c0-7.194-1.458-14.041-4.087-20.28c-9.936-23.5-37.74-33.089-61.726-24.411
		c-13.069,4.729-37.532,9.98-81.712,9.98s-68.643-5.25-81.712-9.98c-23.986-8.678-51.799,0.911-61.726,24.411
		c-2.638,6.231-4.087,13.086-4.087,20.28l-0.234,79.082c0,54.489,4.244,114.428,45.342,153.444
		c14.744,13.998,32.108,24.776,48.883,36.152c16.775,11.368,31.562,26.372,53.3,26.372c21.738,0,36.526-15.004,53.3-26.372
		c16.766-11.377,34.13-22.155,48.874-36.152c41.099-39.016,45.585-99.944,45.585-154.424V191.074z"/>
	<path style="fill:#805333;" d="M414.591,87.76c-4.2-19.395-15.464-36.604-31.857-47.807C323.515-0.53,251.87,0.156,251.87,0.156
		S192.495-2.63,171.781,15.36c-7.585,6.587-15.421,12.895-24.628,16.896c-14.917,6.5-34.668,18.901-40.865,40.509
		c-2.603,9.077-7.22,17.477-13.008,24.94c-13.72,17.712-30.59,59.036,11.064,136.756h0.104l0.13-43.39
		c0-7.194,1.458-14.05,4.096-20.28c9.928-23.5,37.732-33.089,61.718-24.411c13.069,4.729,37.541,9.98,81.712,9.98
		c44.18,0,68.643-5.25,81.712-9.98c23.995-8.678,51.799,0.911,61.726,24.411c2.629,6.231,4.087,13.086,4.087,20.28V243
		C438.646,224.525,424.579,133.779,414.591,87.76"/>
</g>
</svg>